<svg width="160" height="57" viewBox="0 0 160 57" fill="none" xmlns="http://www.w3.org/2000/svg">
<path d="M1.31014 54.6316H0V30.0094L79.814 8.51094L119.045 22.2616L118.615 23.5038L79.7616 9.8847L1.31014 31.0199V54.6316Z" fill="#FF8000"/>
<path d="M143.985 23.1459C144.419 23.1459 144.771 22.7924 144.771 22.3564C144.771 21.9203 144.419 21.5668 143.985 21.5668C143.551 21.5668 143.199 21.9203 143.199 22.3564C143.199 22.7924 143.551 23.1459 143.985 23.1459Z" fill="#0357FF"/>
<path d="M150.011 18.014C150.301 18.014 150.536 17.7784 150.536 17.4877C150.536 17.197 150.301 16.9614 150.011 16.9614C149.722 16.9614 149.487 17.197 149.487 17.4877C149.487 17.7784 149.722 18.014 150.011 18.014Z" fill="#0357FF"/>
<path d="M147.719 19.5246C147.9 19.5246 148.046 19.3338 148.046 19.0983C148.046 18.8628 147.9 18.672 147.719 18.672C147.538 18.672 147.391 18.8628 147.391 19.0983C147.391 19.3338 147.538 19.5246 147.719 19.5246Z" fill="#0357FF"/>
<path d="M131.821 32.0937C130.218 32.0937 127.697 31.6463 126.099 29.1488L125.355 27.9882L126.597 28.5803C126.686 28.6225 128.837 29.6093 130.192 28.0224C131.774 26.1697 135.851 22.0116 139.541 23.438C141.118 24.0485 141.776 24.5644 141.739 25.167C141.703 25.7749 140.953 25.9934 140.804 26.0329L140.775 26.0381C140.725 26.0513 139.986 26.2566 138.93 27.7224C137.751 29.3593 135.82 31.4252 133.323 31.9568C133.31 31.9595 132.704 32.0963 131.821 32.0963V32.0937ZM127.498 29.6567C129.741 31.9437 132.998 31.22 133.153 31.1857C135.414 30.7041 137.198 28.7856 138.296 27.2592C139.509 25.5749 140.429 25.3039 140.623 25.2644C140.744 25.2302 140.885 25.1618 140.943 25.1118C140.885 25.017 140.599 24.6933 139.258 24.1775C135.946 22.8985 131.937 27.1934 130.789 28.5409C129.841 29.6515 128.538 29.812 127.498 29.662V29.6567Z" fill="#0357FF"/>
<path d="M138.875 25.646C139.478 25.2091 140.209 24.8117 140.971 24.8565C140.227 24.996 139.572 25.3644 138.875 25.646Z" fill="#0357FF"/>
<path d="M134.421 28.5409C134.426 28.7725 134.492 29.133 134.303 29.3146C134.03 29.612 133.404 29.6225 133.202 29.2356C132.948 28.6382 133.25 27.6698 133.891 27.4513C134.562 27.3645 135.335 27.3856 135.841 27.8882L135.909 27.9751C136.017 28.1277 136.25 28.1593 136.415 28.0935C136.732 27.9277 136.753 27.4592 136.797 27.1303C136.868 26.6013 136.617 26.0539 136.826 25.5381C137.086 24.9196 137.641 24.3407 138.354 24.3749C138.626 24.3854 138.849 24.5617 139.119 24.5723C139.242 24.5828 139.391 24.5407 139.439 24.4091C139.331 24.6959 138.949 24.5986 138.726 24.5249C138.482 24.4249 138.223 24.4301 137.979 24.5144C137.28 24.767 136.766 25.5802 136.939 26.3329C137.004 26.8697 137.02 27.4303 136.8 27.9408C136.753 28.0645 136.635 28.2198 136.488 28.2698C136.268 28.3567 136.011 28.3303 135.83 28.1724C135.705 28.0251 135.597 27.8777 135.416 27.7935C134.979 27.5829 134.408 27.5435 133.936 27.6092C133.823 27.6382 133.724 27.7014 133.645 27.7882C133.291 28.1303 132.956 29.1672 133.561 29.3988C133.787 29.462 134.091 29.4541 134.264 29.2725C134.457 29.0883 134.392 28.7883 134.418 28.533L134.421 28.5409Z" fill="#0357FF"/>
<path d="M132.325 26.6987C131.903 28.3646 131.714 30.4357 133.111 31.6989C131.483 30.6304 131.62 28.2909 132.325 26.6987Z" fill="#0357FF"/>
<path d="M131.895 31.5989C130.658 30.9357 130.666 29.2041 131.014 28.0145C131.014 28.1803 130.999 28.3409 130.991 28.504C130.957 29.5804 131.004 30.8568 131.895 31.5989Z" fill="#0357FF"/>
<path d="M129.966 28.5409C129.992 29.6778 130.317 30.7936 131.014 31.6989C130.095 30.9778 129.709 29.6646 129.966 28.5409Z" fill="#0357FF"/>
<path d="M129.442 28.804C129.484 29.562 129.463 30.312 129.631 31.0463C129.691 31.2831 129.77 31.5226 129.958 31.6989C129.133 31.1831 129.251 29.6357 129.442 28.804Z" fill="#0357FF"/>
<path d="M128.656 29.0672C128.79 29.7672 128.792 30.4725 128.656 31.1726C128.52 30.4725 128.523 29.7672 128.656 29.0672Z" fill="#0357FF"/>
<path d="M144.349 22.3353L144.142 21.8511C144.218 21.8169 146.047 21.0405 147.913 21.0405C148.214 21.0405 148.921 20.6089 149.328 20.3036C151.057 18.9536 151.301 17.2982 151.324 16.6482C151.332 16.4455 151.256 16.2508 151.112 16.1166C150.855 15.8718 150.588 15.8481 150.276 16.0403C149.574 16.4745 149.967 17.3377 149.983 17.3745L149.508 17.6009C149.291 17.1456 149.115 16.1376 150.001 15.5929C150.517 15.2744 151.041 15.3244 151.474 15.735C151.725 15.9745 151.861 16.314 151.848 16.6692C151.822 17.393 151.552 19.2325 149.645 20.7221C149.453 20.8642 148.494 21.5668 147.913 21.5668C146.157 21.5668 144.365 22.3274 144.346 22.3353H144.349Z" fill="#0357FF"/>
<path d="M144.616 21.28L144.404 20.7984C144.459 20.7747 145.774 20.1931 147.244 20.0905C147.85 20.0484 148.235 19.7483 148.395 19.2036C148.418 19.1194 148.405 19.0299 148.355 18.9615C148.329 18.922 148.279 18.8772 148.201 18.8746C148.151 18.8746 148.01 18.9325 147.918 19.0272V19.2009H147.394V18.8588L147.436 18.793C147.624 18.5035 147.991 18.3377 148.224 18.3483C148.447 18.3588 148.649 18.4693 148.78 18.6562C148.921 18.8562 148.966 19.1167 148.895 19.3536C148.767 19.7931 148.39 20.5405 147.279 20.6194C145.903 20.7168 144.627 21.28 144.614 21.2853L144.616 21.28Z" fill="#0357FF"/>
<path d="M139.75 23.9801L139.048 23.6275C139.048 23.6275 139.512 22.3274 135.817 20.4721C131.512 18.3088 133.346 13.8059 133.519 13.4086C133.608 13.1401 134.319 11.24 137.811 7.73459C141.247 4.28442 139.842 1.10532 139.829 1.07374L139.336 0L140.374 0.560554C144.291 2.67908 146.686 5.53185 147.499 9.03992C149.016 15.6008 144.498 22.0511 144.307 22.3221L143.668 21.8642C143.712 21.8011 148.172 15.4244 146.734 9.21361C146.034 6.18978 144.048 3.67386 140.83 1.72903C141.074 3.07384 141.034 5.6187 138.37 8.29251C134.853 11.8243 134.274 13.6428 134.269 13.6612L134.248 13.7165C134.169 13.8849 132.38 17.8614 136.174 19.7641C140.589 21.9827 139.855 23.7801 139.756 23.9775L139.75 23.9801Z" fill="#0357FF"/>
<path d="M140.861 1.27901C141.399 2.46065 141.928 3.65018 142.439 4.84234C142.502 4.97919 142.544 5.11867 142.583 5.26078C143.204 7.63722 142.583 9.23466 140.44 10.4295C140.026 10.7163 139.399 11.0848 139.03 11.419C138.199 12.1559 137.615 13.3375 137.869 14.4533C138.142 15.5218 139.153 16.4219 140.272 16.4403C140.825 16.4508 141.409 16.3692 141.844 16.0376C142.452 15.5692 142.677 14.456 142.185 13.8375C141.826 13.4401 141.092 13.5375 140.699 13.8375C140.379 14.1191 140.56 14.6612 140.835 14.9086C141.349 15.3271 141.48 14.7639 141.482 14.327H141.503C141.503 14.4718 141.503 14.6165 141.472 14.7612C141.362 15.4113 140.657 15.0376 140.516 14.6112C140.385 14.3402 140.369 13.9638 140.615 13.748C141.454 13.1164 142.586 13.4191 142.633 14.5718C142.777 16.7508 139.971 17.2193 138.632 15.9824C137.091 14.6823 137.57 12.5532 138.98 11.3663C139.832 10.6453 140.99 10.1347 141.75 9.32414C142.819 8.16882 142.779 6.424 142.331 5.00288C141.844 3.7765 141.268 2.49749 140.856 1.27901H140.861Z" fill="#0357FF"/>
<path d="M143.062 10.6374C144.1 10.0005 145.837 8.88465 145.678 7.49247L145.696 7.48721C146.301 8.85833 144.066 10.2163 143.062 10.64V10.6374Z" fill="#0357FF"/>
<path d="M143.851 11.1611C144.629 10.869 145.405 10.4531 145.961 9.85838C145.9 10.3189 145.452 10.5953 145.067 10.7663C144.684 10.9295 144.231 11.1348 143.851 11.1637V11.1611Z" fill="#0357FF"/>
<path d="M144.771 11.7348C145.151 11.7058 145.381 11.4163 145.74 11.3374L145.754 11.3506C145.691 11.5506 145.518 11.6664 145.326 11.7085C145.146 11.7637 144.954 11.7848 144.771 11.7532V11.7348Z" fill="#0357FF"/>
<path d="M145.012 12.3453C145.125 12.3111 145.237 12.2559 145.347 12.2559C145.379 12.269 145.455 12.3032 145.46 12.3638C145.395 12.4559 145.326 12.4743 145.235 12.4322C145.177 12.4111 145.012 12.3927 145.009 12.3427L145.012 12.3453Z" fill="#0357FF"/>
<path d="M139.137 14.3297C138.548 13.2217 139.593 12.0559 140.628 11.7453C140.518 11.8322 140.406 11.9058 140.295 11.9874C139.549 12.5217 138.899 13.3454 139.137 14.3323V14.3297Z" fill="#0357FF"/>
<path d="M135.553 10.8505C135.008 12.1848 133.766 15.1455 135.018 16.2982C135.529 16.6324 136.189 16.8482 136.758 17.1035C136.944 17.1798 137.133 17.2561 137.321 17.3219C137.513 17.3587 137.597 17.6219 137.447 17.7588C137.408 17.8009 136.706 18.5483 136.698 18.5588L136.679 18.5799C136.682 18.5825 136.679 18.5851 136.685 18.5851C136.763 18.5851 137.204 18.5851 137.293 18.5878C137.625 18.5483 138.034 18.7088 138.176 19.0483C138.618 20.2905 139.035 21.5142 139.444 22.7537L138.734 20.9326L138.042 19.1141C137.977 18.9851 137.866 18.8772 137.735 18.8167C137.602 18.7509 137.466 18.7536 137.295 18.7562C137.204 18.7562 136.769 18.7562 136.687 18.7588C136.564 18.7641 136.467 18.6246 136.517 18.5114C136.551 18.4377 136.609 18.3983 136.653 18.3456L137.314 17.6272C137.397 17.5088 137.269 17.5114 137.148 17.4614C136.467 17.2061 135.783 16.9035 135.128 16.5824C133.407 15.5402 134.892 12.219 135.561 10.8505H135.553Z" fill="#0357FF"/>
<path d="M141.488 11.9559C141.828 11.5216 142.468 11.3611 142.874 11.8085C143.427 12.3638 143.817 13.0296 144.231 13.6823C144.928 14.7481 144.946 16.364 144.066 17.3324C143.697 17.6956 143.256 17.964 142.824 18.2377C141.946 18.7667 141.027 19.2246 140.078 19.6168C139.902 19.7747 139.491 20.151 139.936 20.3852L140.078 20.451L140.041 20.4431H140.702C140.78 20.4431 140.914 20.4484 140.99 20.4457C141.11 20.4405 141.22 20.5431 141.228 20.6615C141.236 20.7431 141.194 20.8037 141.168 20.8668L140.888 21.4668L140.817 21.6169C140.78 21.6774 140.796 21.7326 140.859 21.7432C140.94 21.7432 141.103 21.7484 141.184 21.7484C141.461 21.7379 141.524 21.9748 141.409 22.1985C141.178 22.7827 140.961 23.5275 140.696 24.0564C140.877 23.4459 141.084 22.7643 141.278 22.1537C141.299 22.0669 141.357 21.9879 141.289 21.9274C141.26 21.8905 141.123 21.9142 141.019 21.9116C140.882 21.9169 140.712 21.93 140.647 21.7774C140.578 21.6511 140.681 21.5037 140.723 21.3932C140.741 21.3484 141.016 20.7247 141.024 20.7115C141.042 20.68 141.029 20.6484 140.992 20.6484C140.964 20.6484 140.895 20.6484 140.869 20.6484C140.759 20.6484 140.167 20.6484 140.044 20.651C139.284 20.4063 139.454 19.8141 140.01 19.4352C141.396 18.8457 142.871 18.2825 144.024 17.2877C144.724 16.5429 144.737 15.356 144.422 14.4376C144.006 13.5322 143.427 12.6506 142.793 11.8901C142.439 11.4664 141.849 11.5979 141.503 11.9664L141.488 11.9532V11.9559Z" fill="#0357FF"/>
<path d="M140.872 24.2801C141.695 23.0274 142.41 21.7247 143.055 20.3747L143.081 20.3799C143.044 21.1563 142.635 21.8432 142.219 22.4695C141.841 23.0195 141.312 23.8643 140.872 24.2801Z" fill="#0357FF"/>
<path d="M143.607 22.5985L145.295 19.1983L143.985 21.0405C143.463 21.6695 142.963 22.3669 142.331 22.8827C142.014 23.0801 141.682 23.3511 141.37 23.6827C140.683 24.417 140.298 25.2276 140.35 25.7328L140.054 25.7749C140.054 25.7749 138.482 27.6171 139.441 26.8671C140.065 26.3802 140.557 26.2487 140.827 26.2144C140.898 26.2197 140.971 26.2197 141.053 26.2065C141.553 26.1302 142.234 25.7144 142.84 25.067C143.723 24.1222 144.111 23.0485 143.704 22.6643C143.676 22.6379 143.644 22.6143 143.607 22.5958V22.5985Z" fill="#0357FF"/>
<path d="M78.0846 43.0732C79.096 43.6521 79.793 43.489 80.4821 42.5284C80.8909 41.96 81.0979 41.3047 81.2577 40.6441C81.4071 40.0125 81.2001 39.4046 80.8857 38.8598C80.5686 38.3098 79.7956 38.0782 79.1563 38.3966C78.6689 38.6387 78.1737 38.9493 77.8094 39.3467C76.4731 40.7994 75.7499 42.5679 75.3569 44.489C75.1499 45.497 75.0975 46.4944 75.3778 47.4892C75.7473 48.805 76.4417 49.8577 77.7256 50.4551C79.3397 51.2051 80.8202 50.9157 82.2037 49.9077C82.5705 49.6393 82.9085 49.3077 83.1863 48.9498C83.3959 48.6787 83.6082 48.3234 83.6213 47.9997C83.7103 45.5943 84.5698 43.4179 85.5419 41.2783C85.8668 40.5651 86.273 39.8914 86.6634 39.2098C86.7577 39.0467 86.9018 38.8598 87.0669 38.7993C88.1229 38.3993 89.192 38.0334 90.1956 37.6782C90.5519 37.9308 90.6672 38.1835 90.6882 38.4914C90.7511 39.4177 90.7275 40.3415 90.2401 41.1599C89.6558 42.1415 89.0243 43.0916 88.4085 44.0522C88.3247 44.1837 88.2303 44.3127 88.2251 44.568C88.5526 44.4022 88.8775 44.2311 89.2077 44.068C89.585 43.8837 89.9519 43.6574 90.3502 43.5337C91.1677 43.2784 91.773 43.7074 91.8594 44.568C91.9249 45.2338 91.7258 45.8601 91.5188 46.4786C91.2175 47.3734 90.8952 48.2629 90.6069 49.1603C90.4471 49.6577 90.2846 50.1814 90.869 50.5341C91.9171 50.2577 93.1958 49.0471 94.5872 47.0181C94.3828 46.8655 94.1758 46.7102 93.9504 46.5444C93.8744 46.3102 93.7958 46.0628 93.7198 45.8312C94.2465 43.8916 94.671 43.4469 95.9733 43.5048C96.914 44.2601 95.8501 45.1154 96.0598 45.9786C96.7908 45.9812 97.3385 45.6049 97.7944 45.0996C98.2294 44.618 98.6014 44.0811 99.0495 43.5021L99.6574 43.4627C99.1648 44.8311 98.6827 46.1391 98.2294 47.4602C98.0826 47.8866 98.0093 48.3418 97.928 48.7892C97.8206 49.3787 97.8311 49.3814 98.1953 50.0656C98.7325 50.3209 99.2067 50.1393 99.6181 49.7709C100.056 49.3787 100.459 48.9471 100.863 48.5445C101.177 46.9076 101.785 45.4049 102.424 43.9469C103.313 43.7916 104.133 43.6495 105.058 43.4863C104.641 44.4811 104.232 45.3891 103.879 46.3207C103.58 47.1102 103.321 47.9181 103.1 48.734C103.009 49.0735 103.035 49.4524 103.053 49.813C103.093 50.5393 103.721 50.8657 104.285 50.3814C104.846 49.8972 105.351 49.3156 105.757 48.6945C106.457 47.6234 106.792 46.3786 107.222 45.1812C107.377 44.7548 107.558 44.339 107.725 43.9258C108.543 43.7864 109.303 43.6574 110.152 43.5153C110.097 43.7258 110.063 43.9048 110.008 44.0758C109.308 46.2102 108.603 48.3392 107.909 50.4735C107.833 50.7051 107.804 50.9525 107.725 51.3262C111.103 49.7235 113.107 47.076 114.666 43.8443C115.282 43.7258 115.998 43.589 116.828 43.4284C116.414 44.4969 116.608 45.3417 117.182 46.1917C118.172 47.6602 117.84 48.8524 116.605 50.3656C115.966 51.1499 115.104 51.7131 114.093 51.9841C113.008 52.2763 112.125 51.9394 111.548 50.9183C111.949 50.4683 112.374 49.9919 112.754 49.5656C113.27 49.634 113.231 49.9972 113.341 50.2498C113.776 51.2499 114.509 51.4341 115.342 50.742C116.097 50.1156 116.288 49.3603 115.843 48.4629C115.408 47.5865 114.907 46.7418 114.391 45.8022C113.739 46.6786 113.128 47.5339 112.478 48.3603C111.813 49.2077 111.121 50.0367 110.178 50.5972C109.256 51.1446 108.323 51.6789 107.335 52.2552C106.913 53.2395 106.512 54.3053 105.836 55.2395C105.236 56.0659 104.481 56.6344 103.501 56.916C102.92 57.0818 102.39 57.0186 101.966 56.5791C101.544 56.1449 101.492 55.6501 101.686 55.0448C101.934 54.2685 102.448 53.75 103.064 53.3158C103.729 52.8473 104.445 52.4552 105.218 51.9789C105.385 51.3815 105.577 50.6999 105.807 49.8735C105.558 50.0261 105.398 50.0946 105.275 50.2051C105.005 50.4446 104.764 50.713 104.497 50.9551C103.763 51.6157 102.941 52.0262 101.9 51.8446C101.007 51.4762 100.923 50.5762 100.685 49.813C99.9325 50.384 99.2198 50.9525 98.4757 51.4788C98.1901 51.6815 97.8468 51.8157 97.5114 51.9262C96.5524 52.2473 95.7453 51.7131 95.6458 50.7025C95.5698 49.9367 95.7034 49.205 96.0493 48.5129C96.3558 47.8997 96.6624 47.2865 97.0266 46.5602C96.4816 46.7128 96.0152 46.8023 95.5855 46.9813C95.3654 47.0734 95.1793 47.305 95.0379 47.5129C94.0343 48.9892 92.7949 50.2419 91.3642 51.292C90.9292 51.6131 90.3999 51.842 89.8785 51.9999C88.8959 52.2973 88.0495 51.6394 87.9814 50.6051C87.9369 49.9393 88.0888 49.3051 88.3037 48.6892C88.5736 47.9208 88.8828 47.1681 89.1501 46.3996C89.2654 46.0707 89.323 45.7207 89.3964 45.4233C88.93 44.889 88.5055 45.1101 88.1177 45.3391C87.287 45.8233 86.6503 46.5286 85.9271 47.3471C85.8485 48.6761 85.7673 50.1051 85.6808 51.5709C85.0257 51.7183 84.3995 51.8578 83.6736 52.021C83.5819 51.292 83.4929 50.5683 83.3985 49.7998C82.8142 50.213 82.2744 50.6577 81.677 51.0078C79.7196 52.1578 77.6444 52.4315 75.501 51.6288C73.9681 51.0551 72.4929 49.2314 72.4405 47.2049C72.3619 44.1311 73.4414 41.5863 75.6687 39.5151C76.5648 38.6808 77.6024 38.0387 78.8025 37.7992C79.8978 37.5808 81.0219 37.5755 81.9783 38.3387C83.1365 39.2651 83.1679 40.5204 82.9505 41.831C82.7566 42.9942 82.091 43.8837 81.1765 44.5574C80.3459 45.168 79.4131 45.3628 78.4357 44.8364C77.7099 44.4469 77.5789 43.7969 78.082 43.06L78.0846 43.0732ZM86.3385 45.6522C86.5769 45.468 86.6896 45.4101 86.7603 45.318C87.2687 44.6785 87.8006 44.0548 88.267 43.3863C89.0112 42.3152 89.7134 41.2178 90.0305 39.9151C90.1562 39.394 90.1327 39.023 89.6663 38.7493C89.2785 38.8414 89.061 39.0967 88.8409 39.4046C87.6958 40.9967 87.0774 42.8126 86.5612 44.6732C86.4879 44.9417 86.4381 45.218 86.3411 45.6549L86.3385 45.6522ZM102.907 56.4659C104.303 55.7606 104.418 54.3842 104.94 53.0184C103.926 53.3631 103.213 53.7895 102.65 54.4921C102.244 55.0001 102.168 55.5317 102.33 56.1764C102.485 56.2554 102.655 56.3396 102.907 56.4659Z" fill="#0357FF"/>
<path d="M148.586 44.0522C149.024 42.2337 149.466 40.5046 149.839 38.7624C149.956 38.2124 150.184 37.9729 150.729 37.9282C151.238 37.8887 151.741 37.7729 152.307 37.6834C152.42 38.3466 152.152 38.8493 152.029 39.3677C151.434 41.8652 150.813 44.3574 150.239 46.8576C150.067 47.6155 149.998 48.4024 149.925 49.1814C149.899 49.4577 149.993 49.7445 150.035 50.034L150.577 50.3261C150.672 50.2893 150.771 50.2735 150.85 50.2209C151.254 49.9472 151.665 49.6866 152.045 49.384C152.524 49.0024 152.758 48.5103 152.823 47.8681C153.012 46.0075 154.741 44.0758 156.536 43.6153C157.788 43.2942 158.305 43.4653 159.175 44.4811C159.536 45.7207 158.879 46.5154 157.959 47.1207C157.34 47.5286 156.636 47.8076 155.957 48.1155C155.637 48.2603 155.289 48.3418 154.964 48.4497C155.268 50.5051 157.11 51.2394 158.727 49.9761C159.162 49.6366 159.541 49.2208 160 48.7919V49.6367C159.958 49.6945 159.906 49.7788 159.838 49.8472C159.099 50.5972 158.302 51.2709 157.327 51.692C156.602 52.0052 155.839 52.1999 155.048 52.0289C153.952 51.792 152.951 50.9893 152.718 49.5445C152.262 49.984 151.877 50.4077 151.437 50.763C150.934 51.1709 150.41 51.5736 149.841 51.8762C149.081 52.2841 148.418 52.0526 148.078 51.2551C147.839 50.6972 147.745 50.0788 147.564 49.4077C147.339 49.6998 147.098 49.9735 146.901 50.2788C146.477 50.9341 145.866 51.3709 145.206 51.7236C143.943 52.3999 142.824 51.9815 142.263 50.663C142.14 50.3735 142.046 50.0709 141.925 49.734C140.746 50.7183 139.858 52.0578 138.262 52.0894C137.345 51.5394 137.086 50.763 137.078 49.7735C136.606 49.9656 136.292 50.2656 135.956 50.542C135.254 51.1262 134.494 51.5946 133.619 51.9183C132.474 52.342 131.114 51.8894 130.634 50.3577C130.577 50.1761 130.566 49.9814 130.514 49.6761C130.265 49.8472 130.084 49.9551 129.924 50.084C129.29 50.5946 128.672 51.1288 128.025 51.6236C127.799 51.7946 127.519 51.9157 127.244 51.9999C126.536 52.2157 125.952 51.9157 125.698 51.2025C125.59 50.8999 125.546 50.5735 125.499 50.2525C125.457 49.9682 125.454 49.6814 125.428 49.2919C124.956 49.6051 124.741 50.0051 124.474 50.3525C123.947 51.042 123.319 51.5894 122.498 51.9104C121.712 52.2184 120.903 52.0236 120.407 51.3552C120.033 50.8499 119.821 50.2893 119.786 49.6393C119.674 47.4865 120.601 45.8654 122.239 44.5732C122.732 44.1864 123.24 43.8574 123.832 43.6442C124.82 43.2863 125.687 43.3574 126.376 44.2443C126.437 44.3206 126.518 44.3785 126.665 44.518C127.375 44.1601 128.114 43.789 129.005 43.3442C128.952 43.7469 128.952 43.9969 128.887 44.2259C128.515 45.5391 128.114 46.847 127.752 48.1629C127.65 48.534 127.647 48.934 127.605 49.3208C127.553 49.8051 127.749 50.1446 128.242 50.3498C129.212 50.1946 129.66 49.3051 130.386 48.7234C130.826 45.1706 131.887 41.8047 133.606 38.5993C134.539 38.394 135.375 37.7387 136.441 37.7334C136.721 38.4229 136.944 39.0414 136.753 39.7572C136.635 40.1941 136.64 40.6625 136.551 41.1073C136.224 42.7126 135.396 44.0758 134.431 45.3628C133.981 45.9628 133.48 46.526 132.967 47.147C132.867 47.9576 132.655 48.8287 132.998 49.6788C133.126 49.9972 133.375 50.2683 133.527 50.4972C134.397 50.6999 135.044 50.5104 135.618 49.9761C136.142 49.4866 136.7 49.0366 137.177 48.6287C137.494 47.0155 137.874 45.5364 138.524 44.0311C139.289 43.8548 140.094 43.6706 140.995 43.4627C140.733 44.268 140.489 44.9654 140.275 45.6733C139.992 46.6076 139.722 47.5444 139.467 48.484C139.308 49.084 139.386 49.4577 139.764 50.1577C139.971 50.1209 140.256 50.1472 140.442 50.0209C141.247 49.4814 141.951 48.9313 142.258 47.8576C142.785 46.0075 143.909 44.5232 145.743 43.7258C146.778 43.2758 147.402 43.36 148.594 44.0522H148.586ZM122.129 49.5788C122.933 50.542 123.376 50.5788 124.186 49.7998C124.372 49.6209 124.553 49.4235 124.694 49.205C125.575 47.8602 126.112 46.4181 125.871 44.7654C125.234 43.9785 124.393 43.9179 123.78 44.6838C122.645 46.1023 121.985 47.6971 122.126 49.5788H122.129ZM147.244 44.0101C146.61 44.1101 146.215 44.4627 145.905 44.8864C145.007 46.1259 144.428 47.4786 144.472 49.0577C144.491 49.7288 144.711 50.1946 145.402 50.3393C146.194 50.2446 146.658 49.7472 147.069 49.1129C147.758 48.0471 148.093 46.8602 148.243 45.6312C148.329 44.9206 148.036 44.2864 147.242 44.0074L147.244 44.0101ZM135.726 38.4519C135.39 38.9335 135.141 39.1967 135.002 39.5072C134.112 41.4915 133.622 43.5942 133.231 45.7443C133.548 45.4943 133.85 45.2364 134.064 44.9206C134.871 43.7337 135.568 42.4942 135.951 41.0836C136.119 40.4651 136.14 39.8598 136.108 39.2414C136.098 39.0467 135.93 38.8598 135.726 38.4519ZM154.864 47.7313C155.792 47.7629 156.856 47.147 157.288 46.2496C157.608 45.5891 157.728 44.8917 157.22 44.2153H156.253C155.113 45.1496 154.864 46.3891 154.867 47.7313H154.864Z" fill="#0357FF"/>
<path d="M12.9809 39.173C12.3651 39.7993 12.1136 40.3888 11.9328 40.9889C11.4454 42.6074 11.0183 44.2416 10.5362 45.8601C10.0986 47.326 9.6872 48.8077 8.79893 50.0893C8.16482 51.0025 7.35777 51.6946 6.26773 51.9762C5.46854 52.1815 4.78464 51.8868 4.25011 51.3051C3.78631 50.7999 3.79941 50.2419 4.28417 49.7182C4.6117 49.3629 5.02309 49.0893 5.40041 48.7734C5.83014 48.9866 5.78297 49.3682 5.86158 49.7051C5.98736 50.2498 6.13147 50.8078 6.87825 50.8867C7.58311 50.6999 8.02856 50.1393 8.43995 49.5419C9.22865 48.3971 9.6348 47.0865 10.0069 45.7654C10.4733 44.1074 10.8899 42.4363 11.3851 40.7862C11.7284 39.6441 12.4542 38.7098 13.1407 37.7913C13.7329 37.7124 14.2701 37.6413 14.8413 37.565C14.8413 38.1808 14.8623 38.7308 14.8361 39.2809C14.8099 39.8335 14.7051 40.3809 14.6972 40.9336C14.6762 42.3468 14.6841 43.76 14.692 45.1706C14.6998 46.4154 14.595 47.6471 14.2989 48.8603C14.2701 48.9787 14.3094 49.1103 14.3251 49.3735C14.9435 48.6261 15.1977 47.8313 15.5042 47.076C16.2772 45.1706 17.0161 43.2521 17.9699 41.4283C18.5359 40.3467 19.2539 39.3861 20.0976 38.5071C20.6059 37.9782 21.1588 37.6597 21.9056 37.715C22.2227 37.7387 22.5423 37.7203 22.9432 37.7203C22.6393 38.5361 22.3458 39.2519 22.1021 39.9809C21.489 41.8363 21.0697 43.7364 20.7265 45.6601C20.5352 46.7418 20.5666 47.8102 20.5562 48.8892C20.5509 49.4051 20.7108 49.8419 21.1693 50.1498C21.7353 50.5314 22.2882 50.3183 22.7231 50.013C23.4935 49.4682 24.0804 48.7945 24.3687 47.7971C24.9897 45.647 26.4754 44.2337 28.5716 43.5074C29.5149 43.1811 30.2119 43.4916 30.8486 44.3495C30.9063 44.4259 30.9928 44.4811 31.0609 44.5417C31.8496 44.1758 32.5309 43.5916 33.4899 43.4311C33.1021 44.718 32.73 45.918 32.3841 47.126C32.2217 47.6892 32.0671 48.2576 31.9885 48.8366C31.9072 49.4182 31.8313 50.0472 32.6252 50.3393C33.5109 50.1972 33.938 49.3682 34.6245 48.8577L34.876 49.0577C35.0961 47.3313 35.6385 45.697 36.2543 44.0022C37.0063 43.8443 37.7898 43.6811 38.6754 43.4969C38.1121 45.4417 37.5671 47.3286 37.064 49.0708C37.1111 49.305 37.1111 49.3735 37.1373 49.4314C37.5409 50.2893 37.7531 50.3525 38.5287 49.8367C38.6912 49.7288 38.8746 49.634 39.0004 49.4893C39.7524 48.6287 40.5306 47.7866 41.2197 46.8786C41.9089 45.9707 42.5299 45.0075 42.8941 43.8653C43.5911 43.7258 44.2855 43.5863 45.0899 43.4258C45.027 43.6653 44.9694 43.8285 44.9458 43.9969C44.8541 44.6601 44.8829 45.2943 45.3022 45.8733C46.573 47.6181 46.1302 48.9261 44.8357 50.4498C44.2016 51.1972 43.3605 51.7289 42.3858 51.9894C41.3508 52.2657 40.4965 51.9525 39.907 51.0367C40.148 50.4051 40.638 49.9603 41.1438 49.563C41.6364 49.663 41.5263 50.1025 41.7071 50.3498C41.8932 50.6077 42.0687 50.8735 42.2181 51.0867C43.9003 51.1551 44.82 49.8472 44.144 48.4418C43.7195 47.5602 43.2112 46.7207 42.6923 45.7812C42.446 46.1207 42.2128 46.4128 42.0111 46.726C40.921 48.4155 39.5349 49.8445 38.0518 51.1788C37.6955 51.4973 37.2343 51.7157 36.7941 51.9183C36.1495 52.2183 35.463 51.9499 35.1774 51.2973C35.049 51.0051 35.0175 50.6683 34.9284 50.3577C34.8708 50.1525 34.7896 49.9551 34.7083 49.7288C34.0244 50.313 33.4244 50.8683 32.7772 51.363C32.4496 51.6131 32.0566 51.8052 31.6662 51.9394C30.8722 52.2131 30.3456 51.9394 30.0573 51.1472C29.9578 50.8735 29.8896 50.5841 29.8556 50.2946C29.8215 50.0077 29.8477 49.713 29.8477 49.3393C29.4075 49.534 29.2319 49.8419 29.0171 50.113C28.4065 50.8841 27.7672 51.6209 26.7741 51.9289C25.8675 52.2078 25.0735 51.921 24.6228 51.0946C24.4054 50.6972 24.2403 50.2683 24.0149 49.7709C23.7765 49.9893 23.5354 50.2261 23.2813 50.4446C22.5083 51.0999 21.7222 51.7104 20.6793 51.9078C19.584 52.1131 18.7613 51.7473 18.342 50.6999C17.9228 49.6551 17.7498 48.5419 17.8992 47.4313C18.156 45.5285 18.4887 43.6364 19.2146 41.8442C19.5211 41.0889 19.8906 40.3599 20.2286 39.6177C20.2889 39.4835 20.3387 39.344 20.3334 39.173C19.5998 39.8283 19.0469 40.6073 18.5909 41.4626C17.5926 43.339 16.8511 45.3285 16.0335 47.2839C15.5069 48.5497 14.9199 49.784 14.1129 50.913C13.4919 51.7815 12.7032 52.0973 11.5791 52.0236C11.676 51.2999 11.7651 50.6077 11.862 49.9156C11.8882 49.7235 11.9485 49.534 11.959 49.3419C12.0324 47.6418 12.1241 45.9417 12.1555 44.239C12.1843 42.7258 12.4254 41.2573 12.8604 39.8151C12.9023 39.673 12.9154 39.5204 12.9835 39.1598L12.9809 39.173ZM29.4966 44.0785C28.7996 44.1258 28.3934 44.4495 28.0607 44.868C27.1436 46.018 26.6378 47.3418 26.4701 48.7998C26.4151 49.2787 26.5566 49.7051 26.8815 50.0656C27.0964 50.3025 27.3872 50.4525 27.6702 50.3209C28.0764 50.134 28.5454 49.9367 28.8022 49.6024C29.6879 48.4471 30.2145 47.1155 30.4084 45.6654C30.5054 44.9443 30.1621 44.4048 29.4966 44.0785Z" fill="#0357FF"/>
<path d="M66.8226 48.8919C66.7178 49.3129 66.7335 49.6209 66.5894 49.7788C65.7509 50.7025 64.8233 51.4762 63.6154 51.942C62.4991 52.371 61.2388 51.6631 61.5348 50.0603C61.734 48.9813 62.1611 47.9445 62.4834 46.8891C62.6065 46.4865 62.7454 46.0865 62.8371 45.6759C62.8686 45.5417 62.7716 45.3785 62.7428 45.2548C62.2554 45.0891 61.9751 45.4312 61.7549 45.6496C61.0317 46.3575 60.2981 47.0786 59.7321 47.9076C59.4098 48.3839 59.3574 49.0735 59.2788 49.6788C59.1976 50.2867 59.2316 50.913 59.2159 51.5709C58.511 51.7262 57.8612 51.871 57.2061 52.0157C57.1301 51.2709 57.0594 50.563 56.9755 49.7235C55.9484 50.4183 54.9789 50.7288 53.9308 49.8603C53.6766 50.1419 53.4146 50.384 53.2154 50.6656C52.7805 51.2788 52.183 51.6315 51.4965 51.8946C50.0554 52.4473 48.4098 51.671 48.1373 49.7919C47.7338 47.0023 49.1907 44.8654 51.4677 43.8364C52.6783 43.289 53.9753 43.3126 55.0287 43.8574C55.2986 45.3101 55.2252 45.9523 54.2033 49.1866C54.937 49.8972 55.3719 49.9525 56.1633 49.4472C56.4436 49.2682 56.7371 49.1129 57.1013 48.9024C57.2297 47.2207 57.8612 45.5522 58.5818 43.9127C59.3233 43.7679 60.0413 43.6258 60.7933 43.4784C60.4736 44.518 60.1749 45.497 59.8055 46.7076C60.1068 46.4839 60.2299 46.4181 60.319 46.3207C61.1628 45.4049 61.9986 44.4838 63.0939 43.8521C63.6127 43.5521 63.9508 43.4679 64.8181 43.5074C64.9412 43.6364 65.1404 43.8495 65.2923 44.0127C65.5308 45.368 65.0277 46.4812 64.6373 47.6181C64.446 48.1734 64.1971 48.7103 64.0425 49.2735C63.9324 49.6709 63.804 50.1472 64.2364 50.4472C64.6425 50.7288 64.9805 50.4525 65.2871 50.1998C65.7378 49.8261 66.178 49.4393 66.8226 48.8892V48.8919ZM53.3779 49.4656C52.8538 48.5682 52.3796 47.7129 52.4425 46.6812C52.5053 45.6443 53.0923 44.8496 53.7683 44.0574C52.4031 43.9232 51.8476 44.218 51.2659 45.2575C50.7812 46.1259 50.5427 47.0734 50.4589 48.0445C50.4091 48.6155 50.5008 49.2182 50.6318 49.7814C50.865 50.7762 51.8057 51.0788 52.5839 50.4235C52.8774 50.1788 53.0818 49.8261 53.3726 49.4656H53.3779Z" fill="#0357FF"/>
<path d="M36.498 41.3704C36.781 40.7336 37.0273 40.1757 37.305 39.544C37.9391 39.8572 38.5995 40.1309 39.341 39.6862C39.5428 40.4362 39.3305 41.0204 38.8038 41.4441C38.0728 42.031 37.3077 41.8705 36.498 41.3704Z" fill="#0357FF"/>
<path d="M138.723 41.3652C139.004 40.7625 139.279 40.1783 139.578 39.5388C140.219 39.8204 140.901 40.173 141.703 39.6335C141.687 40.4309 141.572 41.1047 140.979 41.5152C140.225 42.0389 139.452 41.8099 138.723 41.3652Z" fill="#0357FF"/>
</svg>
