<svg width="599" height="211" viewBox="0 0 599 211" fill="none" xmlns="http://www.w3.org/2000/svg">
<path d="M4.90485 202.233H0V111.087L298.804 31.5054L445.674 82.407L444.066 87.0052L298.607 36.5907L4.90485 114.828V202.233Z" fill="white"/>
<path d="M539.043 85.6803C540.668 85.6803 541.986 84.3718 541.986 82.7578C541.986 81.1437 540.668 79.8352 539.043 79.8352C537.418 79.8352 536.1 81.1437 536.1 82.7578C536.1 84.3718 537.418 85.6803 539.043 85.6803Z" fill="white"/>
<path d="M561.605 66.6835C562.689 66.6835 563.567 65.8112 563.567 64.7352C563.567 63.6591 562.689 62.7868 561.605 62.7868C560.522 62.7868 559.644 63.6591 559.644 64.7352C559.644 65.8112 560.522 66.6835 561.605 66.6835Z" fill="white"/>
<path d="M553.022 72.2754C553.699 72.2754 554.248 71.5688 554.248 70.6972C554.248 69.8256 553.699 69.119 553.022 69.119C552.345 69.119 551.796 69.8256 551.796 70.6972C551.796 71.5688 552.345 72.2754 553.022 72.2754Z" fill="white"/>
<path d="M493.507 118.803C487.503 118.803 478.066 117.147 472.082 107.902L469.296 103.605L473.946 105.797C474.279 105.953 482.333 109.607 487.405 103.732C493.33 96.8738 508.594 81.4816 522.406 86.7617C528.311 89.0218 530.774 90.9312 530.636 93.1621C530.499 95.4125 527.693 96.2211 527.134 96.3672L527.026 96.3867C526.84 96.4354 524.074 97.1953 520.12 102.622C515.706 108.681 508.476 116.328 499.128 118.296C499.078 118.306 496.812 118.813 493.507 118.813V118.803ZM477.321 109.782C485.718 118.248 497.911 115.569 498.49 115.442C506.956 113.659 513.636 106.557 517.746 100.907C522.288 94.6721 525.731 93.6687 526.457 93.5226C526.909 93.396 527.438 93.1427 527.654 92.9576C527.438 92.6069 526.369 91.4086 521.346 89.4992C508.947 84.7646 493.938 100.663 489.642 105.651C486.09 109.762 481.215 110.357 477.321 109.801V109.782Z" fill="white"/>
<path d="M519.914 94.9352C522.17 93.318 524.907 91.847 527.762 92.0126C524.976 92.5289 522.524 93.8928 519.914 94.9352Z" fill="white"/>
<path d="M503.238 105.651C503.257 106.509 503.503 107.843 502.796 108.515C501.776 109.616 499.432 109.655 498.676 108.223C497.725 106.012 498.853 102.427 501.256 101.618C503.767 101.297 506.661 101.375 508.555 103.235L508.81 103.557C509.212 104.122 510.085 104.239 510.703 103.995C511.89 103.381 511.968 101.647 512.135 100.43C512.4 98.4715 511.458 96.4452 512.243 94.5357C513.214 92.2464 515.294 90.1032 517.962 90.2298C518.982 90.2688 519.816 90.9215 520.827 90.9604C521.288 90.9994 521.847 90.8435 522.023 90.3565C521.621 91.4183 520.189 91.0579 519.355 90.7851C518.443 90.4149 517.472 90.4344 516.559 90.7461C513.94 91.6814 512.017 94.6916 512.665 97.4778C512.91 99.4652 512.969 101.54 512.145 103.43C511.969 103.888 511.527 104.463 510.978 104.648C510.154 104.969 509.192 104.872 508.515 104.287C508.045 103.742 507.642 103.196 506.965 102.885C505.327 102.105 503.189 101.959 501.423 102.203C501.001 102.31 500.628 102.544 500.334 102.865C499.01 104.132 497.754 107.97 500.02 108.827C500.864 109.061 502.002 109.032 502.649 108.36C503.375 107.678 503.13 106.567 503.228 105.622L503.238 105.651Z" fill="white"/>
<path d="M495.39 98.8319C493.811 104.999 493.104 112.665 498.333 117.342C492.241 113.386 492.751 104.726 495.39 98.8319Z" fill="white"/>
<path d="M493.781 116.971C489.151 114.516 489.181 108.106 490.485 103.703C490.485 104.317 490.426 104.911 490.397 105.515C490.269 109.499 490.446 114.224 493.781 116.971Z" fill="white"/>
<path d="M486.561 105.651C486.659 109.86 487.876 113.99 490.485 117.342C487.042 114.672 485.6 109.811 486.561 105.651Z" fill="white"/>
<path d="M484.599 106.625C484.756 109.431 484.678 112.208 485.306 114.926C485.531 115.802 485.826 116.689 486.532 117.342C483.442 115.432 483.883 109.704 484.599 106.625Z" fill="white"/>
<path d="M481.656 107.6C482.157 110.191 482.167 112.802 481.656 115.393C481.146 112.802 481.156 110.191 481.656 107.6Z" fill="white"/>
<path d="M540.407 82.6798L539.632 80.8873C539.916 80.7606 546.763 77.8868 553.748 77.8868C554.876 77.8868 557.525 76.2891 559.045 75.159C565.52 70.1614 566.432 64.0338 566.52 61.6275C566.55 60.8774 566.265 60.1565 565.726 59.6596C564.764 58.7536 563.764 58.6659 562.596 59.3771C559.967 60.9845 561.439 64.1799 561.498 64.3163L559.722 65.1541C558.908 63.4687 558.251 59.7376 561.566 57.721C563.499 56.5422 565.461 56.7273 567.079 58.247C568.021 59.1336 568.531 60.3903 568.482 61.7054C568.384 64.3845 567.374 71.1941 560.232 76.708C559.516 77.2341 555.926 79.8352 553.748 79.8352C547.175 79.8352 540.466 82.6506 540.397 82.6798H540.407Z" fill="white"/>
<path d="M541.407 78.7733L540.613 76.9905C540.819 76.9028 545.743 74.7499 551.246 74.3699C553.513 74.2141 554.955 73.1035 555.553 71.0869C555.641 70.7752 555.592 70.4439 555.406 70.1907C555.308 70.0445 555.121 69.8789 554.827 69.8692C554.641 69.8692 554.111 70.0835 553.768 70.4342V71.0772H551.806V69.8107L551.963 69.5672C552.669 68.4956 554.042 67.8818 554.915 67.9208C555.749 67.9598 556.504 68.3689 556.995 69.0606C557.525 69.801 557.691 70.7654 557.427 71.6422C556.946 73.2691 555.533 76.0358 551.374 76.3281C546.224 76.6885 541.447 78.7733 541.398 78.7928L541.407 78.7733Z" fill="white"/>
<path d="M523.191 88.7685L520.562 87.4631C520.562 87.4631 522.298 82.6506 508.466 75.7825C492.349 67.7746 499.216 51.1062 499.863 49.6352C500.197 48.6415 502.855 41.6078 515.932 28.6316C528.792 15.8599 523.534 4.09162 523.485 3.97471L521.641 0L525.525 2.07503C540.191 9.91729 549.157 20.4776 552.198 33.4636C557.878 57.7502 540.966 81.6277 540.25 82.6311L537.856 80.936C538.023 80.7022 554.719 57.0975 549.334 34.1065C546.714 22.913 539.279 13.5997 527.232 6.40045C528.145 11.3786 527.997 20.799 518.021 30.6968C504.856 43.7705 502.688 50.5022 502.669 50.5704L502.59 50.775C502.296 51.3985 495.596 66.1185 509.8 73.162C526.33 81.3744 523.583 88.0281 523.21 88.7588L523.191 88.7685Z" fill="white"/>
<path d="M527.35 4.73458C529.361 9.10871 531.343 13.5121 533.255 17.9252C533.491 18.4317 533.648 18.9481 533.795 19.4741C536.12 28.2711 533.795 34.1845 525.771 38.6073C524.221 39.6692 521.876 41.033 520.493 42.2703C517.383 44.998 515.196 49.3721 516.147 53.5027C517.167 57.4579 520.954 60.7897 525.143 60.8579C527.213 60.8968 529.4 60.5948 531.029 59.3674C533.305 57.6333 534.148 53.5124 532.304 51.2231C530.96 49.7521 528.213 50.1125 526.742 51.2231C525.545 52.2655 526.222 54.2723 527.252 55.1881C529.175 56.737 529.665 54.6523 529.675 53.0351H529.753C529.753 53.5709 529.753 54.1067 529.636 54.6425C529.224 57.0488 526.585 55.6654 526.055 54.0872C525.565 53.0838 525.506 51.6907 526.428 50.8919C529.567 48.5538 533.805 49.6741 533.981 53.9411C534.521 62.0074 524.015 63.7415 519.002 59.1628C513.234 54.3503 515.029 46.469 520.307 42.0754C523.495 39.4061 527.831 37.5162 530.676 34.5157C534.678 30.239 534.531 23.7801 532.853 18.5194C531.029 13.9797 528.871 9.2451 527.33 4.73458H527.35Z" fill="white"/>
<path d="M535.59 39.3769C539.475 37.0194 545.979 32.8888 545.38 27.7353L545.449 27.7158C547.715 32.7914 539.347 37.8182 535.59 39.3867V39.3769Z" fill="white"/>
<path d="M538.543 41.3156C541.456 40.2342 544.36 38.695 546.44 36.4933C546.214 38.1981 544.537 39.221 543.095 39.8543C541.662 40.4583 539.965 41.2181 538.543 41.3253V41.3156Z" fill="white"/>
<path d="M541.986 43.4393C543.408 43.3321 544.272 42.2605 545.616 41.9683L545.665 42.017C545.429 42.7574 544.782 43.186 544.066 43.3419C543.389 43.5465 542.673 43.6244 541.986 43.5075V43.4393Z" fill="white"/>
<path d="M542.889 45.6994C543.31 45.5728 543.732 45.3682 544.144 45.3682C544.262 45.4169 544.546 45.5436 544.566 45.7676C544.321 46.1086 544.066 46.1768 543.722 46.0209C543.507 45.943 542.889 45.8748 542.879 45.6897L542.889 45.6994Z" fill="white"/>
<path d="M520.895 53.0448C518.688 48.9435 522.602 44.6278 526.477 43.4783C526.065 43.7997 525.643 44.0725 525.231 44.3745C522.435 46.3521 520.003 49.4014 520.895 53.0546V53.0448Z" fill="white"/>
<path d="M507.476 40.166C505.435 45.1052 500.785 56.0648 505.474 60.3318C507.387 61.569 509.859 62.3679 511.988 63.3128C512.685 63.5954 513.391 63.8779 514.097 64.1214C514.813 64.2578 515.127 65.232 514.568 65.7386C514.421 65.8945 511.792 68.6612 511.762 68.7001L511.694 68.7781C511.703 68.7878 511.694 68.7976 511.713 68.7976C512.008 68.7976 513.656 68.7976 513.989 68.8073C515.235 68.6612 516.765 69.2554 517.295 70.5121C518.953 75.1103 520.513 79.6403 522.043 84.2288L519.385 77.4874L516.795 70.7557C516.549 70.2783 516.138 69.8789 515.647 69.6548C515.147 69.4113 514.637 69.421 513.999 69.4308C513.656 69.4308 512.027 69.4308 511.723 69.4405C511.262 69.46 510.899 68.9437 511.085 68.5248C511.213 68.252 511.429 68.1059 511.596 67.911L514.068 65.2515C514.382 64.8131 513.901 64.8228 513.45 64.6377C510.899 63.6928 508.339 62.5725 505.886 61.3839C499.441 57.5261 505.003 45.2318 507.505 40.166H507.476Z" fill="white"/>
<path d="M529.695 44.2576C530.97 42.6502 533.363 42.0559 534.884 43.7121C536.954 45.7676 538.415 48.2323 539.965 50.6483C542.575 54.5938 542.643 60.5754 539.347 64.1604C537.964 65.5048 536.316 66.4985 534.697 67.5116C531.411 69.4697 527.968 71.1648 524.417 72.6164C523.76 73.2009 522.22 74.594 523.887 75.4611L524.417 75.7046L524.28 75.6754H526.752C527.046 75.6754 527.546 75.6949 527.831 75.6851C528.282 75.6656 528.694 76.0456 528.723 76.4839C528.753 76.7859 528.596 77.01 528.498 77.2438L527.448 79.465L527.183 80.0203C527.046 80.2443 527.105 80.4489 527.34 80.4879C527.644 80.4879 528.252 80.5074 528.557 80.5074C529.596 80.4684 529.832 81.3452 529.4 82.1732C528.537 84.3359 527.723 87.0929 526.732 89.051C527.409 86.7909 528.184 84.2678 528.91 82.0076C528.988 81.6861 529.204 81.3939 528.949 81.1698C528.841 81.0334 528.331 81.1211 527.939 81.1114C527.428 81.1309 526.791 81.1796 526.546 80.6145C526.291 80.1469 526.673 79.6014 526.83 79.1922C526.899 79.0266 527.929 76.7178 527.958 76.6691C528.027 76.5521 527.978 76.4352 527.841 76.4352C527.733 76.4352 527.477 76.4352 527.379 76.4352C526.967 76.4352 524.75 76.4352 524.289 76.445C521.445 75.539 522.082 73.347 524.162 71.9442C529.351 69.762 534.874 67.6772 539.19 63.9948C541.81 61.2378 541.858 56.8442 540.681 53.4443C539.122 50.093 536.954 46.8295 534.58 44.0141C533.255 42.4456 531.048 42.9327 529.753 44.2966L529.695 44.2479V44.2576Z" fill="white"/>
<path d="M527.389 89.8791C530.469 85.2419 533.148 80.4197 535.561 75.4221L535.659 75.4416C535.521 78.3154 533.991 80.8581 532.431 83.1766C531.019 85.2127 529.037 88.3399 527.389 89.8791Z" fill="white"/>
<path d="M537.63 83.654L543.948 71.0674L539.043 77.8868C537.091 80.2151 535.217 82.7967 532.853 84.7061C531.666 85.4368 530.42 86.4402 529.253 87.6677C526.683 90.3857 525.241 93.3862 525.437 95.2567L524.329 95.4125C524.329 95.4125 518.443 102.232 522.033 99.4554C524.368 97.6532 526.212 97.1661 527.222 97.0394C527.487 97.0589 527.762 97.0589 528.066 97.0102C529.94 96.7277 532.49 95.1885 534.756 92.7919C538.062 89.2946 539.514 85.3199 537.993 83.8975C537.886 83.8001 537.768 83.7125 537.63 83.6443V83.654Z" fill="white"/>
<path d="M292.329 159.446C296.116 161.589 298.725 160.985 301.305 157.43C302.835 155.325 303.61 152.9 304.209 150.454C304.768 148.116 303.993 145.866 302.816 143.849C301.629 141.813 298.735 140.956 296.341 142.135C294.517 143.031 292.663 144.181 291.299 145.652C286.296 151.029 283.589 157.576 282.117 164.687C281.342 168.419 281.146 172.111 282.196 175.793C283.579 180.664 286.178 184.561 290.985 186.772C297.028 189.549 302.57 188.477 307.75 184.746C309.123 183.752 310.389 182.525 311.429 181.2C312.213 180.197 313.008 178.881 313.057 177.683C313.391 168.779 316.608 160.722 320.248 152.802C321.464 150.162 322.984 147.668 324.446 145.145C324.799 144.541 325.339 143.849 325.957 143.625C329.91 142.145 333.913 140.79 337.67 139.475C339.004 140.411 339.435 141.346 339.514 142.486C339.749 145.915 339.661 149.334 337.836 152.364C335.649 155.998 333.285 159.514 330.979 163.07C330.665 163.557 330.312 164.035 330.293 164.98C331.519 164.366 332.735 163.733 333.971 163.129C335.384 162.447 336.757 161.609 338.248 161.151C341.309 160.206 343.575 161.794 343.899 164.98C344.144 167.444 343.398 169.763 342.623 172.052C341.495 175.365 340.289 178.657 339.21 181.979C338.611 183.821 338.003 185.759 340.191 187.065C344.115 186.042 348.902 181.56 354.111 174.049C353.346 173.484 352.571 172.91 351.727 172.296C351.442 171.429 351.148 170.513 350.864 169.656C352.835 162.476 354.425 160.83 359.3 161.044C362.822 163.84 358.839 167.006 359.624 170.201C362.361 170.211 364.411 168.818 366.118 166.948C367.746 165.165 369.139 163.177 370.817 161.034L373.092 160.888C371.248 165.954 369.443 170.796 367.746 175.686C367.197 177.264 366.922 178.95 366.618 180.606C366.216 182.788 366.255 182.798 367.619 185.331C369.63 186.276 371.405 185.603 372.945 184.24C374.584 182.788 376.094 181.19 377.605 179.7C378.782 173.64 381.058 168.078 383.452 162.681C386.777 162.106 389.847 161.58 393.31 160.976C391.75 164.658 390.22 168.019 388.896 171.468C387.778 174.39 386.806 177.381 385.982 180.401C385.639 181.658 385.737 183.061 385.806 184.395C385.953 187.084 388.307 188.292 390.416 186.5C392.516 184.707 394.409 182.554 395.929 180.255C398.549 176.29 399.804 171.682 401.413 167.25C401.992 165.671 402.669 164.132 403.296 162.603C406.357 162.086 409.202 161.609 412.38 161.083C412.174 161.862 412.047 162.525 411.841 163.158C409.222 171.059 406.583 178.94 403.983 186.841C403.699 187.698 403.591 188.614 403.296 189.997C415.941 184.064 423.446 174.264 429.282 162.301C431.588 161.862 434.266 161.356 437.375 160.761C435.825 164.717 436.551 167.844 438.7 170.99C442.408 176.426 441.162 180.84 436.542 186.441C434.148 189.344 430.921 191.429 427.134 192.432C423.073 193.514 419.767 192.267 417.609 188.487C419.11 186.821 420.699 185.058 422.121 183.48C424.054 183.733 423.907 185.077 424.319 186.013C425.947 189.714 428.694 190.396 431.813 187.834C434.639 185.516 435.355 182.72 433.687 179.398C432.059 176.154 430.185 173.027 428.252 169.549C425.81 172.793 423.524 175.959 421.091 179.018C418.6 182.155 416.01 185.223 412.478 187.298C409.025 189.325 405.533 191.302 401.835 193.436C400.256 197.079 398.755 201.025 396.224 204.483C393.977 207.542 391.152 209.646 387.483 210.689C385.305 211.303 383.324 211.069 381.735 209.442C380.155 207.834 379.959 206.003 380.685 203.762C381.617 200.888 383.54 198.969 385.845 197.362C388.337 195.628 391.015 194.176 393.909 192.413C394.536 190.202 395.253 187.678 396.116 184.619C395.184 185.184 394.586 185.438 394.124 185.847C393.114 186.733 392.212 187.727 391.211 188.623C388.464 191.069 385.384 192.588 381.49 191.916C378.144 190.552 377.831 187.221 376.938 184.395C374.122 186.509 371.454 188.614 368.668 190.562C367.599 191.312 366.314 191.809 365.058 192.218C361.468 193.407 358.447 191.429 358.074 187.688C357.789 184.853 358.29 182.145 359.584 179.583C360.732 177.313 361.88 175.043 363.243 172.354C361.203 172.919 359.457 173.251 357.848 173.913C357.024 174.254 356.328 175.111 355.798 175.881C352.041 181.346 347.401 185.983 342.045 189.87C340.416 191.059 338.435 191.906 336.483 192.491C332.804 193.592 329.635 191.156 329.38 187.328C329.214 184.863 329.783 182.515 330.587 180.236C331.597 177.391 332.755 174.605 333.756 171.76C334.187 170.542 334.403 169.247 334.678 168.146C332.932 166.168 331.342 166.987 329.891 167.834C326.781 169.627 324.397 172.237 321.69 175.267C321.395 180.187 321.091 185.477 320.767 190.903C318.315 191.449 315.97 191.965 313.253 192.569C312.91 189.87 312.576 187.191 312.223 184.347C310.036 185.876 308.015 187.523 305.778 188.818C298.45 193.075 290.681 194.089 282.657 191.117C276.918 188.994 271.395 182.242 271.199 174.741C270.905 163.363 274.946 153.942 283.285 146.275C286.64 143.187 290.524 140.81 295.017 139.923C299.117 139.115 303.326 139.095 306.906 141.921C311.242 145.35 311.36 149.997 310.546 154.848C309.82 159.154 307.328 162.447 303.905 164.941C300.795 167.201 297.303 167.922 293.644 165.973C290.926 164.532 290.436 162.125 292.319 159.398L292.329 159.446ZM323.23 168.993C324.122 168.311 324.544 168.097 324.809 167.756C326.712 165.389 328.704 163.08 330.45 160.606C333.236 156.641 335.865 152.578 337.052 147.756C337.522 145.827 337.434 144.453 335.688 143.44C334.236 143.781 333.422 144.726 332.598 145.866C328.311 151.76 325.996 158.482 324.064 165.369C323.789 166.363 323.602 167.386 323.24 169.003L323.23 168.993ZM385.256 209.023C390.485 206.412 390.917 201.317 392.869 196.261C389.072 197.537 386.404 199.115 384.295 201.717C382.775 203.597 382.49 205.565 383.098 207.951C383.677 208.244 384.315 208.555 385.256 209.023Z" fill="white"/>
<path d="M556.269 163.07C557.907 156.339 559.565 149.938 560.958 143.489C561.399 141.453 562.253 140.566 564.293 140.401C566.196 140.255 568.08 139.826 570.199 139.495C570.621 141.95 569.62 143.81 569.159 145.73C566.932 154.975 564.607 164.2 562.459 173.455C561.811 176.261 561.556 179.174 561.282 182.057C561.184 183.08 561.537 184.142 561.694 185.214L563.724 186.295C564.078 186.159 564.45 186.1 564.745 185.905C566.255 184.892 567.795 183.928 569.218 182.807C571.013 181.395 571.886 179.573 572.131 177.196C572.838 170.309 579.312 163.158 586.032 161.453C590.721 160.265 592.653 160.898 595.91 164.658C597.264 169.247 594.802 172.189 591.358 174.429C589.043 175.939 586.404 176.972 583.864 178.112C582.667 178.648 581.362 178.95 580.146 179.349C581.284 186.958 588.18 189.676 594.232 184.999C595.861 183.743 597.283 182.203 599 180.616V183.743C598.843 183.957 598.647 184.269 598.392 184.522C595.626 187.298 592.643 189.792 588.994 191.351C586.277 192.51 583.422 193.231 580.46 192.598C576.359 191.721 572.612 188.75 571.739 183.402C570.032 185.029 568.59 186.597 566.942 187.912C565.058 189.422 563.097 190.913 560.968 192.033C558.123 193.543 555.641 192.686 554.366 189.734C553.473 187.669 553.12 185.379 552.443 182.895C551.6 183.976 550.697 184.99 549.961 186.12C548.372 188.545 546.086 190.163 543.614 191.468C538.886 193.972 534.697 192.423 532.598 187.542C532.137 186.47 531.784 185.35 531.333 184.103C526.918 187.747 523.593 192.705 517.619 192.822C514.185 190.786 513.214 187.912 513.185 184.249C511.419 184.96 510.242 186.071 508.986 187.094C506.357 189.257 503.512 190.991 500.236 192.189C495.949 193.757 490.858 192.082 489.063 186.412C488.847 185.74 488.808 185.019 488.612 183.889C487.68 184.522 487.003 184.921 486.404 185.399C484.03 187.289 481.715 189.266 479.292 191.098C478.449 191.731 477.399 192.179 476.369 192.491C473.72 193.29 471.533 192.179 470.581 189.539C470.179 188.419 470.012 187.211 469.836 186.022C469.679 184.97 469.669 183.908 469.571 182.466C467.805 183.626 467.001 185.107 466 186.392C464.028 188.945 461.674 190.971 458.604 192.16C455.661 193.3 452.629 192.579 450.775 190.104C449.373 188.234 448.578 186.159 448.451 183.752C448.029 175.783 451.501 169.782 457.632 164.999C459.477 163.567 461.38 162.349 463.597 161.56C467.295 160.235 470.542 160.498 473.122 163.781C473.348 164.064 473.652 164.278 474.201 164.795C476.859 163.47 479.626 162.096 482.961 160.45C482.765 161.94 482.765 162.866 482.52 163.713C481.127 168.574 479.626 173.416 478.272 178.287C477.889 179.661 477.88 181.142 477.723 182.574C477.526 184.366 478.262 185.623 480.106 186.383C483.736 185.808 485.413 182.515 488.131 180.362C489.779 167.211 493.752 154.751 500.187 142.885C503.679 142.125 506.808 139.699 510.801 139.68C511.851 142.232 512.685 144.522 511.968 147.171C511.527 148.789 511.547 150.523 511.213 152.169C509.987 158.112 506.887 163.158 503.277 167.922C501.59 170.143 499.716 172.228 497.793 174.527C497.421 177.527 496.626 180.752 497.911 183.899C498.392 185.077 499.324 186.081 499.893 186.928C503.149 187.678 505.572 186.977 507.721 184.999C509.683 183.187 511.772 181.522 513.558 180.012C514.745 174.04 516.167 168.565 518.6 162.992C521.464 162.34 524.476 161.658 527.85 160.888C526.869 163.869 525.957 166.451 525.153 169.071C524.093 172.53 523.083 175.998 522.131 179.476C521.533 181.697 521.827 183.08 523.24 185.672C524.015 185.535 525.084 185.633 525.78 185.165C528.792 183.168 531.431 181.132 532.579 177.157C534.55 170.309 538.759 164.814 545.625 161.862C549.5 160.196 551.835 160.508 556.298 163.07H556.269ZM457.22 183.528C460.232 187.094 461.89 187.23 464.921 184.347C465.618 183.684 466.294 182.954 466.824 182.145C470.12 177.167 472.131 171.828 471.229 165.71C468.845 162.798 465.696 162.573 463.401 165.408C459.153 170.659 456.681 176.563 457.211 183.528H457.22ZM551.246 162.914C548.872 163.285 547.391 164.59 546.234 166.158C542.869 170.747 540.701 175.754 540.868 181.599C540.936 184.084 541.76 185.808 544.35 186.344C547.313 185.993 549.049 184.152 550.589 181.804C553.169 177.859 554.425 173.465 554.984 168.915C555.308 166.285 554.209 163.937 551.237 162.905L551.246 162.914ZM508.123 142.339C506.867 144.122 505.935 145.096 505.415 146.246C502.08 153.591 500.246 161.375 498.784 169.334C499.971 168.409 501.099 167.454 501.904 166.285C504.925 161.892 507.534 157.303 508.967 152.081C509.594 149.792 509.673 147.551 509.555 145.262C509.516 144.541 508.888 143.849 508.123 142.339ZM579.773 176.689C583.246 176.806 587.228 174.527 588.847 171.205C590.044 168.76 590.495 166.178 588.592 163.674H584.972C580.705 167.133 579.773 171.721 579.783 176.689H579.773Z" fill="white"/>
<path d="M48.5973 145.009C46.292 147.327 45.3502 149.51 44.6734 151.731C42.8488 157.722 41.2498 163.772 39.4448 169.763C37.8066 175.189 36.2665 180.674 32.941 185.418C30.567 188.799 27.5456 191.361 23.4648 192.403C20.4728 193.163 17.9125 192.072 15.9113 189.919C14.175 188.049 14.2241 185.983 16.0389 184.045C17.2651 182.729 18.8052 181.716 20.2178 180.547C21.8266 181.336 21.65 182.749 21.9443 183.996C22.4152 186.013 22.9547 188.078 25.7505 188.37C28.3893 187.678 30.0569 185.603 31.597 183.392C34.5498 179.154 36.0703 174.303 37.4632 169.412C39.2094 163.275 40.7691 157.089 42.6231 150.981C43.9082 146.753 46.6255 143.294 49.1957 139.894C51.4126 139.602 53.4236 139.339 55.5621 139.056C55.5621 141.336 55.6406 143.372 55.5425 145.408C55.4444 147.454 55.052 149.48 55.0226 151.526C54.9441 156.757 54.9736 161.989 55.003 167.211C55.0324 171.819 54.64 176.378 53.5315 180.869C53.4236 181.307 53.5708 181.794 53.6296 182.768C55.9447 180.002 56.8963 177.06 58.044 174.264C60.9379 167.211 63.7042 160.109 67.2749 153.358C69.3938 149.354 72.0817 145.798 75.2404 142.544C77.1435 140.586 79.2133 139.407 82.0091 139.612C83.1961 139.699 84.3929 139.631 85.8937 139.631C84.7558 142.651 83.6571 145.301 82.7448 147.999C80.4494 154.868 78.8798 161.901 77.5947 169.023C76.8786 173.027 76.9963 176.982 76.9571 180.976C76.9375 182.885 77.5359 184.503 79.2526 185.642C81.3715 187.055 83.4413 186.266 85.0697 185.136C87.9538 183.119 90.1512 180.625 91.2302 176.933C93.5551 168.974 99.1172 163.742 106.965 161.054C110.496 159.846 113.106 160.995 115.49 164.171C115.705 164.454 116.029 164.658 116.284 164.882C119.237 163.528 121.787 161.365 125.378 160.771C123.926 165.535 122.533 169.977 121.238 174.449C120.63 176.534 120.051 178.638 119.757 180.781C119.453 182.934 119.168 185.262 122.141 186.344C125.456 185.818 127.055 182.749 129.625 180.859L130.567 181.599C131.391 175.209 133.422 169.159 135.727 162.885C138.542 162.301 141.476 161.697 144.791 161.015C142.682 168.214 140.642 175.199 138.758 181.648C138.935 182.515 138.935 182.768 139.033 182.983C140.544 186.159 141.338 186.392 144.242 184.483C144.85 184.084 145.537 183.733 146.008 183.197C148.823 180.011 151.736 176.894 154.316 173.533C156.896 170.172 159.221 166.607 160.585 162.379C163.194 161.862 165.794 161.346 168.805 160.752C168.57 161.638 168.354 162.242 168.266 162.866C167.922 165.321 168.03 167.668 169.6 169.812C174.358 176.271 172.7 181.112 167.854 186.753C165.48 189.52 162.331 191.488 158.682 192.452C154.807 193.475 151.609 192.316 149.402 188.925C150.304 186.587 152.139 184.941 154.032 183.47C155.876 183.84 155.464 185.467 156.141 186.383C156.837 187.337 157.495 188.321 158.054 189.11C164.352 189.364 167.795 184.522 165.264 179.32C163.675 176.056 161.772 172.949 159.829 169.471C158.907 170.727 158.034 171.809 157.279 172.968C153.198 179.222 148.009 184.512 142.456 189.451C141.122 190.63 139.396 191.439 137.748 192.189C135.335 193.299 132.765 192.306 131.695 189.89C131.215 188.808 131.097 187.561 130.763 186.412C130.548 185.652 130.243 184.921 129.939 184.084C127.379 186.246 125.133 188.302 122.71 190.133C121.483 191.059 120.012 191.77 118.55 192.267C115.578 193.28 113.606 192.267 112.527 189.335C112.154 188.321 111.899 187.25 111.772 186.178C111.644 185.116 111.742 184.025 111.742 182.642C110.094 183.363 109.437 184.503 108.633 185.506C106.347 188.36 103.953 191.088 100.236 192.228C96.8414 193.261 93.869 192.199 92.1818 189.14C91.3676 187.669 90.7495 186.081 89.9059 184.24C89.0132 185.048 88.1107 185.925 87.1592 186.733C84.2653 189.159 81.3224 191.419 77.4182 192.15C73.3177 192.91 70.2375 191.556 68.6679 187.678C67.0984 183.811 66.4509 179.69 67.0101 175.579C67.9714 168.535 69.2173 161.531 71.9345 154.897C73.0823 152.101 74.4654 149.402 75.7309 146.655C75.9565 146.158 76.1429 145.642 76.1233 145.009C73.3766 147.434 71.3067 150.318 69.5998 153.484C65.8623 160.43 63.0862 167.795 60.0256 175.033C58.0538 179.719 55.8564 184.288 52.835 188.467C50.5101 191.682 47.5574 192.851 43.3491 192.579C43.712 189.9 44.0456 187.337 44.4085 184.775C44.5066 184.064 44.7322 183.363 44.7715 182.652C45.0461 176.358 45.3895 170.065 45.5072 163.762C45.6151 158.16 46.5176 152.724 48.146 147.386C48.303 146.86 48.352 146.295 48.6071 144.96L48.5973 145.009ZM110.428 163.168C107.818 163.343 106.298 164.541 105.052 166.09C101.619 170.347 99.7254 175.248 99.0976 180.645C98.8916 182.418 99.4213 183.996 100.638 185.331C101.442 186.207 102.531 186.763 103.59 186.276C105.111 185.584 106.867 184.853 107.828 183.616C111.144 179.339 113.116 174.41 113.842 169.042C114.205 166.373 112.919 164.376 110.428 163.168Z" fill="white"/>
<path d="M250.167 180.986C249.775 182.544 249.834 183.684 249.294 184.269C246.155 187.688 242.682 190.552 238.16 192.277C233.981 193.865 229.263 191.244 230.371 185.311C231.117 181.317 232.716 177.479 233.922 173.572C234.383 172.082 234.903 170.601 235.246 169.081C235.364 168.584 235.001 167.98 234.893 167.522C233.069 166.909 232.019 168.175 231.195 168.984C228.488 171.604 225.741 174.273 223.622 177.342C222.415 179.105 222.219 181.658 221.925 183.899C221.621 186.149 221.748 188.467 221.689 190.903C219.051 191.478 216.618 192.014 214.165 192.549C213.881 189.792 213.616 187.172 213.302 184.064C209.457 186.636 205.827 187.786 201.903 184.571C200.952 185.613 199.971 186.509 199.225 187.552C197.597 189.822 195.36 191.127 192.79 192.101C187.395 194.147 181.234 191.273 180.214 184.317C178.703 173.991 184.158 166.081 192.682 162.271C197.214 160.245 202.07 160.333 206.014 162.349C207.024 167.727 206.749 170.104 202.924 182.077C205.67 184.707 207.299 184.912 210.261 183.041C211.311 182.379 212.409 181.804 213.773 181.025C214.254 174.8 216.618 168.623 219.316 162.554C222.092 162.018 224.78 161.492 227.595 160.947C226.398 164.795 225.28 168.419 223.897 172.9C225.025 172.072 225.486 171.828 225.819 171.468C228.978 168.078 232.107 164.668 236.208 162.33C238.15 161.219 239.416 160.908 242.663 161.054C243.124 161.531 243.869 162.32 244.438 162.924C245.331 167.941 243.447 172.062 241.986 176.271C241.27 178.326 240.338 180.313 239.759 182.398C239.347 183.869 238.866 185.633 240.485 186.743C242.005 187.786 243.271 186.763 244.419 185.827C246.106 184.444 247.754 183.012 250.167 180.976V180.986ZM199.833 183.109C197.872 179.787 196.096 176.621 196.331 172.802C196.567 168.964 198.764 166.022 201.295 163.09C196.184 162.593 194.105 163.684 191.927 167.532C190.112 170.747 189.219 174.254 188.905 177.849C188.719 179.963 189.062 182.194 189.553 184.278C190.426 187.961 193.948 189.081 196.861 186.655C197.96 185.749 198.725 184.444 199.814 183.109H199.833Z" fill="white"/>
<path d="M136.639 153.143C137.699 150.786 138.621 148.72 139.661 146.382C142.035 147.542 144.507 148.555 147.283 146.908C148.038 149.685 147.244 151.848 145.272 153.416C142.535 155.588 139.671 154.994 136.639 153.143Z" fill="white"/>
<path d="M519.345 153.124C520.395 150.893 521.425 148.73 522.543 146.363C524.947 147.405 527.497 148.711 530.499 146.714C530.44 149.665 530.008 152.159 527.792 153.679C524.966 155.618 522.072 154.77 519.345 153.124Z" fill="white"/>
</svg>
