<svg width="579" height="238" viewBox="0 0 579 238" fill="none" xmlns="http://www.w3.org/2000/svg">
<path d="M289.5 109.5C279.463 109.5 270.87 105.926 263.722 98.7781C256.574 91.6302 253 83.0375 253 73C253 62.9625 256.574 54.3698 263.722 47.2219C270.87 40.074 279.463 36.5 289.5 36.5C299.537 36.5 308.13 40.074 315.278 47.2219C322.426 54.3698 326 62.9625 326 73C326 83.0375 322.426 91.6302 315.278 98.7781C308.13 105.926 299.537 109.5 289.5 109.5ZM216.5 182.5V156.95C216.5 151.779 217.832 147.028 220.497 142.697C223.161 138.365 226.696 135.056 231.1 132.769C240.529 128.054 250.11 124.52 259.844 122.165C269.577 119.811 279.463 118.631 289.5 118.625C299.537 118.625 309.423 119.805 319.156 122.165C328.89 124.526 338.471 128.06 347.9 132.769C352.31 135.05 355.848 138.359 358.512 142.697C361.177 147.034 362.506 151.785 362.5 156.95V182.5H216.5ZM234.75 164.25H344.25V156.95C344.25 155.277 343.833 153.756 343 152.388C342.166 151.019 341.062 149.954 339.688 149.194C331.475 145.088 323.186 142.009 314.822 139.959C306.457 137.909 298.017 136.881 289.5 136.875C280.983 136.875 272.543 137.903 264.178 139.959C255.814 142.015 247.525 145.094 239.312 149.194C237.944 149.954 236.84 151.019 236 152.388C235.161 153.756 234.744 155.277 234.75 156.95V164.25ZM289.5 91.25C294.519 91.25 298.817 89.4645 302.394 85.8936C305.971 82.3227 307.756 78.0248 307.75 73C307.75 67.9813 305.965 63.6864 302.394 60.1155C298.823 56.5446 294.525 54.7561 289.5 54.75C284.481 54.75 280.186 56.5385 276.616 60.1155C273.045 63.6925 271.256 67.9873 271.25 73C271.25 78.0187 273.039 82.3166 276.616 85.8936C280.193 89.4706 284.487 91.2561 289.5 91.25Z" fill="black"/>
<path d="M81 117C73.575 117 67.2188 114.356 61.9313 109.069C56.6438 103.781 54 97.425 54 90C54 82.575 56.6438 76.2188 61.9313 70.9313C67.2188 65.6438 73.575 63 81 63C88.425 63 94.7812 65.6438 100.069 70.9313C105.356 76.2188 108 82.575 108 90C108 97.425 105.356 103.781 100.069 109.069C94.7812 114.356 88.425 117 81 117ZM27 171V152.1C27 148.275 27.9855 144.76 29.9565 141.556C31.9275 138.352 34.542 135.905 37.8 134.213C44.775 130.725 51.8625 128.11 59.0625 126.369C66.2625 124.627 73.575 123.755 81 123.75C88.425 123.75 95.7375 124.623 102.938 126.369C110.137 128.115 117.225 130.729 124.2 134.213C127.462 135.9 130.079 138.348 132.05 141.556C134.021 144.765 135.005 148.28 135 152.1V171H27Z" fill="black"/>
<path d="M186 152.098C178.575 152.098 172.219 149.31 166.931 143.735C161.644 138.16 159 131.458 159 123.629C159 115.8 161.644 109.098 166.931 103.523C172.219 97.9477 178.575 95.1602 186 95.1602C193.425 95.1602 199.781 97.9477 205.069 103.523C210.356 109.098 213 115.8 213 123.629C213 131.458 210.356 138.16 205.069 143.735C199.781 149.31 193.425 152.098 186 152.098ZM132 209.035V189.107C132 185.074 132.986 181.368 134.957 177.99C136.928 174.612 139.542 172.03 142.8 170.246C149.775 166.569 156.862 163.812 164.062 161.976C171.263 160.14 178.575 159.22 186 159.215C193.425 159.215 200.738 160.135 207.938 161.976C215.137 163.817 222.225 166.574 229.2 170.246C232.462 172.026 235.079 174.607 237.05 177.99C239.021 181.373 240.005 185.079 240 189.107V209.035H132Z" fill="black"/>
<path d="M390 81C382.575 81 376.219 78.3563 370.931 73.0687C365.644 67.7812 363 61.425 363 54C363 46.575 365.644 40.2188 370.931 34.9313C376.219 29.6438 382.575 27 390 27C397.425 27 403.781 29.6438 409.069 34.9313C414.356 40.2188 417 46.575 417 54C417 61.425 414.356 67.7812 409.069 73.0687C403.781 78.3563 397.425 81 390 81ZM336 135V116.1C336 112.275 336.986 108.76 338.957 105.556C340.928 102.352 343.542 99.9045 346.8 98.2125C353.775 94.725 360.862 92.1105 368.062 90.369C375.263 88.6275 382.575 87.7545 390 87.75C397.425 87.75 404.738 88.623 411.938 90.369C419.137 92.115 426.225 94.7295 433.2 98.2125C436.462 99.9 439.079 102.348 441.05 105.556C443.021 108.765 444.005 112.28 444 116.1V135H336Z" fill="black"/>
<path d="M498 117C490.575 117 484.219 114.356 478.931 109.069C473.644 103.781 471 97.425 471 90C471 82.575 473.644 76.2188 478.931 70.9313C484.219 65.6438 490.575 63 498 63C505.425 63 511.781 65.6438 517.069 70.9313C522.356 76.2188 525 82.575 525 90C525 97.425 522.356 103.781 517.069 109.069C511.781 114.356 505.425 117 498 117ZM444 171V152.1C444 148.275 444.986 144.76 446.957 141.556C448.928 138.352 451.542 135.905 454.8 134.213C461.775 130.725 468.862 128.11 476.062 126.369C483.263 124.627 490.575 123.755 498 123.75C505.425 123.75 512.738 124.623 519.938 126.369C527.137 128.115 534.225 130.729 541.2 134.213C544.462 135.9 547.079 138.348 549.05 141.556C551.021 144.765 552.005 148.28 552 152.1V171H444Z" fill="black"/>
</svg>
