<svg width="759" height="267" viewBox="0 0 759 267" fill="none" xmlns="http://www.w3.org/2000/svg">
<path d="M6.21499 255.906H0V140.57L378.617 39.8671L564.719 104.278L562.681 110.097L378.369 46.302L6.21499 145.304V255.906Z" fill="#FF8000"/>
<path d="M683.028 108.42C685.087 108.42 686.757 106.764 686.757 104.722C686.757 102.679 685.087 101.024 683.028 101.024C680.969 101.024 679.299 102.679 679.299 104.722C679.299 106.764 680.969 108.42 683.028 108.42Z" fill="#0357FF"/>
<path d="M711.617 84.3816C712.99 84.3816 714.103 83.2777 714.103 81.9161C714.103 80.5544 712.99 79.4506 711.617 79.4506C710.244 79.4506 709.131 80.5544 709.131 81.9161C709.131 83.2777 710.244 84.3816 711.617 84.3816Z" fill="#0357FF"/>
<path d="M700.741 91.4575C701.599 91.4575 702.294 90.5634 702.294 89.4605C702.294 88.3575 701.599 87.4634 700.741 87.4634C699.883 87.4634 699.187 88.3575 699.187 89.4605C699.187 90.5634 699.883 91.4575 700.741 91.4575Z" fill="#0357FF"/>
<path d="M625.328 150.334C617.721 150.334 605.763 148.238 598.181 136.539L594.651 131.103L600.543 133.876C600.965 134.074 611.17 138.696 617.596 131.263C625.104 122.584 644.445 103.107 661.947 109.788C669.43 112.648 672.549 115.065 672.375 117.888C672.201 120.735 668.646 121.758 667.938 121.943L667.801 121.968C667.565 122.03 664.06 122.991 659.051 129.858C653.457 137.525 644.296 147.202 632.45 149.693C632.388 149.705 629.517 150.346 625.328 150.346V150.334ZM604.818 138.918C615.459 149.631 630.909 146.241 631.642 146.081C642.369 143.825 650.834 134.838 656.042 127.688C661.797 119.798 666.16 118.529 667.08 118.344C667.652 118.184 668.323 117.863 668.597 117.629C668.323 117.185 666.969 115.669 660.604 113.253C644.893 107.261 625.875 127.38 620.431 133.691C615.931 138.894 609.753 139.646 604.818 138.943V138.918Z" fill="#0357FF"/>
<path d="M658.789 120.131C661.648 118.085 665.116 116.223 668.734 116.433C665.203 117.086 662.096 118.812 658.789 120.131Z" fill="#0357FF"/>
<path d="M637.659 133.691C637.683 134.776 637.994 136.465 637.099 137.316C635.806 138.709 632.836 138.758 631.879 136.946C630.673 134.148 632.102 129.611 635.148 128.588C638.33 128.181 641.997 128.28 644.396 130.634L644.719 131.041C645.228 131.756 646.335 131.904 647.118 131.596C648.622 130.819 648.721 128.625 648.933 127.084C649.268 124.606 648.075 122.042 649.069 119.626C650.3 116.729 652.935 114.017 656.316 114.177C657.609 114.226 658.665 115.052 659.945 115.102C660.53 115.151 661.238 114.954 661.462 114.337C660.952 115.681 659.138 115.225 658.081 114.88C656.925 114.411 655.694 114.436 654.538 114.83C651.22 116.014 648.783 119.823 649.604 123.349C649.914 125.864 649.989 128.489 648.945 130.881C648.721 131.46 648.162 132.188 647.466 132.422C646.422 132.829 645.204 132.705 644.346 131.966C643.749 131.275 643.24 130.585 642.382 130.19C640.306 129.204 637.596 129.019 635.359 129.328C634.825 129.463 634.352 129.759 633.979 130.166C632.301 131.768 630.71 136.625 633.581 137.71C634.65 138.006 636.092 137.969 636.913 137.118C637.833 136.256 637.522 134.85 637.646 133.654L637.659 133.691Z" fill="#0357FF"/>
<path d="M627.714 125.062C625.713 132.866 624.818 142.567 631.444 148.484C623.724 143.479 624.371 132.52 627.714 125.062Z" fill="#0357FF"/>
<path d="M625.676 148.016C619.809 144.909 619.846 136.798 621.5 131.226C621.5 132.003 621.425 132.755 621.388 133.519C621.226 138.561 621.45 144.54 625.676 148.016Z" fill="#0357FF"/>
<path d="M616.528 133.691C616.652 139.017 618.193 144.244 621.5 148.484C617.137 145.107 615.309 138.955 616.528 133.691Z" fill="#0357FF"/>
<path d="M614.042 134.924C614.24 138.475 614.141 141.988 614.936 145.427C615.222 146.537 615.595 147.658 616.49 148.484C612.575 146.068 613.134 138.82 614.042 134.924Z" fill="#0357FF"/>
<path d="M610.313 136.157C610.946 139.436 610.959 142.74 610.313 146.019C609.666 142.74 609.679 139.436 610.313 136.157Z" fill="#0357FF"/>
<path d="M684.756 104.623L683.774 102.355C684.134 102.195 692.81 98.5582 701.661 98.5582C703.09 98.5582 706.446 96.5364 708.373 95.1065C716.577 88.7825 717.733 81.0285 717.844 77.9836C717.882 77.0344 717.521 76.1222 716.838 75.4935C715.619 74.347 714.352 74.2361 712.872 75.136C709.541 77.17 711.406 81.2134 711.48 81.386L709.23 82.4462C708.199 80.3135 707.366 75.5921 711.567 73.0403C714.016 71.5487 716.502 71.7829 718.553 73.706C719.746 74.8278 720.393 76.418 720.33 78.0822C720.206 81.4723 718.926 90.0892 709.877 97.0665C708.969 97.7322 704.42 101.024 701.661 101.024C693.332 101.024 684.83 104.586 684.743 104.623H684.756Z" fill="#0357FF"/>
<path d="M686.024 99.68L685.017 97.424C685.278 97.3131 691.518 94.5887 698.491 94.1079C701.362 93.9107 703.19 92.5054 703.948 89.9536C704.06 89.5591 703.997 89.14 703.761 88.8195C703.637 88.6345 703.401 88.425 703.028 88.4126C702.792 88.4126 702.121 88.6839 701.685 89.1276V89.9413H699.199V88.3387L699.398 88.0305C700.293 86.6745 702.033 85.8979 703.14 85.9472C704.196 85.9965 705.153 86.5142 705.775 87.3895C706.446 88.3264 706.657 89.5468 706.322 90.6562C705.713 92.7149 703.923 96.216 698.653 96.5858C692.127 97.0419 686.073 99.68 686.011 99.7046L686.024 99.68Z" fill="#0357FF"/>
<path d="M662.941 112.328L659.61 110.676C659.61 110.676 661.81 104.586 644.284 95.8954C623.861 85.7622 632.562 64.6699 633.383 62.8085C633.805 61.5511 637.174 52.6507 653.743 36.2305C670.039 20.0691 663.376 5.17754 663.314 5.02961L660.977 0L665.899 2.62575C684.482 12.5494 695.843 25.9124 699.697 42.3449C706.894 73.0773 685.464 103.292 684.557 104.562L681.524 102.417C681.735 102.121 702.891 72.2513 696.067 43.1585C692.748 28.9942 683.326 17.2092 668.062 8.09915C669.218 14.3985 669.032 26.3192 656.391 38.8439C639.709 55.3873 636.962 63.9056 636.938 63.9919L636.838 64.2508C636.465 65.0398 627.976 83.6666 645.974 92.5794C666.919 102.971 663.438 111.391 662.966 112.316L662.941 112.328Z" fill="#0357FF"/>
<path d="M668.211 5.99115C670.76 11.5262 673.27 17.0982 675.694 22.6826C675.993 23.3236 676.192 23.9769 676.378 24.6426C679.324 35.7743 676.378 43.2571 666.21 48.8538C664.246 50.1975 661.276 51.9233 659.523 53.4889C655.583 56.9406 652.811 62.4756 654.016 67.7025C655.309 72.7075 660.107 76.9234 665.415 77.0097C668.037 77.059 670.809 76.6769 672.873 75.1236C675.756 72.9293 676.825 67.7148 674.489 64.8179C672.786 62.9564 669.305 63.4125 667.441 64.8179C665.924 66.1369 666.782 68.6764 668.087 69.8351C670.523 71.7952 671.145 69.1571 671.157 67.1108H671.257C671.257 67.7888 671.257 68.4668 671.108 69.1448C670.586 72.1897 667.242 70.4392 666.571 68.4421C665.949 67.1724 665.875 65.4096 667.043 64.3987C671.021 61.4401 676.39 62.8578 676.614 68.2572C677.298 78.4644 663.985 80.6587 657.633 74.8648C650.325 68.775 652.599 58.802 659.287 53.2424C663.326 49.8646 668.82 47.4731 672.425 43.6763C677.497 38.2645 677.31 30.0914 675.185 23.4345C672.873 17.6899 670.138 11.6988 668.187 5.99115H668.211Z" fill="#0357FF"/>
<path d="M678.653 49.8277C683.575 46.8444 691.816 41.6176 691.058 35.0963L691.145 35.0717C694.016 41.4943 683.413 47.8553 678.653 49.84V49.8277Z" fill="#0357FF"/>
<path d="M682.394 52.2808C686.086 50.9125 689.765 48.9647 692.4 46.1787C692.114 48.336 689.989 49.6304 688.162 50.4317C686.347 51.196 684.196 52.1575 682.394 52.2931V52.2808Z" fill="#0357FF"/>
<path d="M686.757 54.9682C688.559 54.8326 689.653 53.4766 691.356 53.1068L691.418 53.1684C691.12 54.1053 690.299 54.6477 689.392 54.8449C688.534 55.1038 687.627 55.2024 686.757 55.0545V54.9682Z" fill="#0357FF"/>
<path d="M687.901 57.8282C688.435 57.6679 688.97 57.4091 689.492 57.4091C689.641 57.4707 690.001 57.6309 690.026 57.9145C689.715 58.3459 689.392 58.4322 688.957 58.235C688.684 58.1364 687.901 58.0501 687.888 57.8159L687.901 57.8282Z" fill="#0357FF"/>
<path d="M660.033 67.1231C657.236 61.9332 662.195 56.4722 667.105 55.0175C666.583 55.4243 666.049 55.7695 665.527 56.1516C661.984 58.6541 658.901 62.5126 660.033 67.1354V67.1231Z" fill="#0357FF"/>
<path d="M643.028 50.8262C640.443 57.0762 634.551 70.9446 640.493 76.3441C642.916 77.9096 646.049 78.9205 648.746 80.1163C649.629 80.4738 650.523 80.8313 651.418 81.1395C652.326 81.312 652.724 82.5448 652.015 83.1858C651.829 83.383 648.497 86.884 648.46 86.9334L648.373 87.032C648.386 87.0443 648.373 87.0566 648.398 87.0566C648.771 87.0566 650.859 87.0566 651.282 87.069C652.86 86.884 654.799 87.636 655.471 89.2263C657.571 95.0448 659.548 100.777 661.487 106.583L658.118 98.0527L654.837 89.5345C654.526 88.9304 654.004 88.425 653.383 88.1414C652.749 87.8333 652.102 87.8456 651.294 87.8579C650.859 87.8579 648.796 87.8579 648.41 87.8702C647.826 87.8949 647.366 87.2415 647.602 86.7115C647.764 86.3663 648.038 86.1814 648.249 85.9348L651.381 82.5694C651.779 82.0147 651.17 82.027 650.598 81.7928C647.366 80.597 644.122 79.1794 641.015 77.6754C632.848 72.7937 639.896 57.2365 643.066 50.8262H643.028Z" fill="#0357FF"/>
<path d="M671.182 56.0037C672.798 53.9697 675.831 53.2177 677.758 55.3134C680.38 57.9145 682.232 61.0333 684.196 64.0905C687.503 69.0832 687.59 76.6522 683.413 81.1888C681.661 82.89 679.572 84.1473 677.521 85.4294C673.357 87.9072 668.995 90.0522 664.495 91.889C663.662 92.6286 661.711 94.3915 663.824 95.4886L664.495 95.7968L664.321 95.7598H667.453C667.826 95.7598 668.46 95.7845 668.821 95.7722C669.392 95.7475 669.914 96.2283 669.952 96.783C669.989 97.1652 669.79 97.4487 669.666 97.7445L668.336 100.555L668 101.258C667.826 101.541 667.901 101.8 668.199 101.85C668.584 101.85 669.355 101.874 669.74 101.874C671.058 101.825 671.356 102.934 670.809 103.982C669.715 106.719 668.684 110.208 667.428 112.685C668.286 109.825 669.268 106.633 670.188 103.773C670.287 103.366 670.561 102.996 670.238 102.713C670.101 102.54 669.454 102.651 668.957 102.639C668.311 102.663 667.503 102.725 667.192 102.01C666.869 101.418 667.354 100.728 667.553 100.21C667.64 100 668.945 97.0789 668.982 97.0172C669.069 96.8693 669.007 96.7214 668.833 96.7214C668.696 96.7214 668.373 96.7214 668.249 96.7214C667.727 96.7214 664.917 96.7214 664.333 96.7337C660.729 95.5872 661.537 92.8136 664.172 91.0384C670.747 88.2771 677.745 85.639 683.215 80.9792C686.533 77.4905 686.595 71.9308 685.104 67.6285C683.127 63.3879 680.38 59.2582 677.372 55.6955C675.694 53.7108 672.898 54.3272 671.257 56.053L671.182 55.9914V56.0037Z" fill="#0357FF"/>
<path d="M668.261 113.733C672.164 107.865 675.558 101.763 678.615 95.4393L678.74 95.464C678.566 99.1006 676.627 102.318 674.65 105.252C672.86 107.828 670.349 111.786 668.261 113.733Z" fill="#0357FF"/>
<path d="M681.238 105.856L689.243 89.9289L683.028 98.5582C680.554 101.504 678.18 104.771 675.185 107.187C673.681 108.112 672.102 109.382 670.623 110.935C667.366 114.374 665.539 118.171 665.788 120.538L664.383 120.735C664.383 120.735 656.925 129.365 661.474 125.851C664.433 123.571 666.77 122.954 668.05 122.794C668.385 122.819 668.733 122.819 669.119 122.757C671.493 122.399 674.725 120.452 677.596 117.419C681.785 112.994 683.625 107.964 681.698 106.164C681.561 106.041 681.412 105.93 681.238 105.844V105.856Z" fill="#0357FF"/>
<path d="M370.414 201.764C375.212 204.476 378.518 203.712 381.787 199.212C383.726 196.549 384.708 193.48 385.466 190.386C386.175 187.427 385.193 184.579 383.701 182.028C382.197 179.451 378.531 178.366 375.498 179.858C373.186 180.992 370.836 182.447 369.109 184.308C362.769 191.113 359.339 199.397 357.474 208.396C356.492 213.117 356.244 217.79 357.574 222.449C359.326 228.613 362.62 233.544 368.711 236.342C376.368 239.856 383.391 238.5 389.954 233.778C391.694 232.521 393.297 230.968 394.615 229.291C395.609 228.021 396.616 226.357 396.678 224.841C397.101 213.574 401.178 203.379 405.789 193.356C407.331 190.016 409.257 186.86 411.109 183.667C411.557 182.903 412.241 182.027 413.024 181.744C418.033 179.87 423.104 178.157 427.865 176.492C429.556 177.676 430.103 178.859 430.202 180.302C430.5 184.641 430.388 188.968 428.076 192.802C425.305 197.4 422.309 201.85 419.388 206.35C418.99 206.966 418.543 207.57 418.518 208.766C420.072 207.989 421.613 207.188 423.179 206.424C424.969 205.561 426.709 204.5 428.599 203.921C432.477 202.725 435.348 204.735 435.758 208.766C436.069 211.885 435.124 214.819 434.142 217.716C432.713 221.907 431.184 226.074 429.817 230.277C429.058 232.607 428.288 235.06 431.06 236.712C436.032 235.418 442.098 229.747 448.698 220.243C447.728 219.528 446.746 218.8 445.677 218.024C445.317 216.927 444.944 215.768 444.583 214.683C447.082 205.598 449.096 203.514 455.273 203.786C459.736 207.323 454.689 211.33 455.683 215.373C459.151 215.386 461.749 213.623 463.912 211.256C465.975 209 467.741 206.485 469.866 203.773L472.75 203.588C470.413 209.999 468.126 216.125 465.975 222.314C465.279 224.311 464.931 226.443 464.546 228.539C464.036 231.3 464.086 231.313 465.814 234.518C468.362 235.714 470.612 234.863 472.563 233.137C474.639 231.3 476.553 229.279 478.468 227.393C479.959 219.725 482.843 212.686 485.876 205.857C490.09 205.129 493.98 204.464 498.368 203.699C496.392 208.359 494.453 212.612 492.775 216.976C491.358 220.674 490.127 224.459 489.083 228.28C488.648 229.87 488.772 231.646 488.859 233.334C489.046 236.737 492.029 238.265 494.701 235.997C497.361 233.729 499.76 231.005 501.687 228.095C505.006 223.078 506.597 217.247 508.635 211.638C509.369 209.641 510.226 207.693 511.022 205.758C514.9 205.105 518.505 204.5 522.532 203.835C522.271 204.821 522.109 205.659 521.848 206.461C518.529 216.458 515.186 226.431 511.892 236.429C511.531 237.513 511.395 238.672 511.022 240.423C527.044 232.915 536.553 220.514 543.949 205.376C546.87 204.821 550.263 204.18 554.204 203.428C552.24 208.433 553.159 212.39 555.882 216.372C560.58 223.251 559.002 228.835 553.147 235.923C550.114 239.597 546.025 242.235 541.227 243.505C536.081 244.873 531.892 243.295 529.157 238.512C531.059 236.404 533.073 234.173 534.875 232.176C537.324 232.496 537.137 234.197 537.659 235.381C539.723 240.065 543.203 240.928 547.156 237.686C550.736 234.752 551.643 231.214 549.53 227.01C547.467 222.905 545.092 218.948 542.644 214.547C539.549 218.652 536.652 222.659 533.57 226.53C530.413 230.499 527.131 234.382 522.656 237.008C518.281 239.572 513.856 242.075 509.17 244.774C507.169 249.385 505.267 254.377 502.06 258.754C499.213 262.625 495.633 265.287 490.985 266.606C488.225 267.383 485.714 267.087 483.701 265.028C481.699 262.994 481.451 260.677 482.371 257.841C483.552 254.205 485.988 251.776 488.909 249.742C492.066 247.548 495.459 245.711 499.126 243.48C499.922 240.682 500.829 237.489 501.923 233.618C500.742 234.333 499.984 234.654 499.4 235.171C498.119 236.293 496.976 237.55 495.708 238.685C492.228 241.779 488.325 243.702 483.39 242.851C479.151 241.125 478.754 236.909 477.622 233.334C474.055 236.01 470.674 238.672 467.144 241.138C465.789 242.087 464.161 242.716 462.57 243.233C458.02 244.737 454.192 242.235 453.72 237.501C453.359 233.914 453.993 230.487 455.634 227.245C457.088 224.372 458.542 221.5 460.27 218.098C457.685 218.813 455.472 219.232 453.434 220.07C452.39 220.502 451.507 221.586 450.836 222.56C446.075 229.476 440.196 235.344 433.409 240.262C431.346 241.766 428.835 242.839 426.361 243.579C421.7 244.972 417.685 241.89 417.362 237.045C417.15 233.926 417.871 230.955 418.891 228.071C420.171 224.471 421.638 220.945 422.906 217.346C423.453 215.805 423.726 214.165 424.074 212.772C421.861 210.27 419.848 211.305 418.008 212.378C414.068 214.646 411.047 217.95 407.617 221.784C407.244 228.009 406.858 234.703 406.448 241.569C403.341 242.26 400.37 242.913 396.927 243.677C396.492 240.262 396.069 236.872 395.622 233.273C392.85 235.208 390.289 237.292 387.455 238.931C378.17 244.318 368.326 245.6 358.158 241.84C350.886 239.153 343.888 230.61 343.64 221.118C343.267 206.719 348.388 194.799 358.953 185.097C363.204 181.189 368.127 178.181 373.82 177.06C379.015 176.036 384.348 176.012 388.885 179.587C394.379 183.926 394.528 189.806 393.496 195.945C392.576 201.394 389.419 205.561 385.081 208.716C381.141 211.576 376.716 212.489 372.079 210.023C368.636 208.199 368.015 205.154 370.401 201.702L370.414 201.764ZM409.568 213.845C410.699 212.982 411.234 212.711 411.569 212.279C413.981 209.284 416.504 206.362 418.717 203.231C422.247 198.213 425.578 193.073 427.082 186.971C427.679 184.53 427.567 182.792 425.354 181.51C423.515 181.941 422.483 183.137 421.439 184.579C416.007 192.037 413.073 200.543 410.625 209.259C410.277 210.516 410.041 211.811 409.581 213.857L409.568 213.845ZM488.163 264.498C494.788 261.195 495.335 254.747 497.809 248.349C492.998 249.964 489.617 251.961 486.945 255.253C485.018 257.632 484.658 260.122 485.428 263.142C486.162 263.512 486.97 263.907 488.163 264.498Z" fill="#0357FF"/>
<path d="M704.855 206.35C706.931 197.831 709.031 189.732 710.797 181.571C711.356 178.995 712.437 177.873 715.023 177.664C717.434 177.479 719.821 176.936 722.506 176.517C723.04 179.624 721.772 181.978 721.188 184.407C718.366 196.105 715.421 207.78 712.698 219.491C711.878 223.041 711.555 226.727 711.207 230.376C711.082 231.67 711.53 233.014 711.729 234.37L714.302 235.738C714.749 235.566 715.222 235.492 715.595 235.245C717.509 233.963 719.46 232.743 721.263 231.325C723.537 229.538 724.643 227.232 724.954 224.224C725.849 215.509 734.053 206.461 742.568 204.303C748.509 202.799 750.958 203.601 755.085 208.359C756.8 214.165 753.68 217.888 749.317 220.723C746.384 222.634 743.04 223.941 739.821 225.383C738.304 226.061 736.651 226.443 735.11 226.949C736.552 236.577 745.29 240.016 752.959 234.099C755.022 232.509 756.825 230.561 759 228.551V232.509C758.801 232.78 758.553 233.174 758.229 233.495C754.724 237.008 750.945 240.164 746.321 242.136C742.878 243.603 739.261 244.515 735.507 243.714C730.312 242.605 725.563 238.845 724.457 232.077C722.294 234.136 720.467 236.12 718.379 237.785C715.992 239.695 713.506 241.582 710.809 242.999C707.204 244.91 704.06 243.825 702.444 240.09C701.312 237.476 700.865 234.58 700.007 231.436C698.938 232.804 697.795 234.086 696.862 235.516C694.849 238.586 691.953 240.632 688.82 242.284C682.829 245.452 677.521 243.492 674.861 237.316C674.277 235.96 673.83 234.543 673.258 232.965C667.664 237.575 663.451 243.85 655.881 243.998C651.53 241.421 650.3 237.785 650.263 233.15C648.025 234.049 646.534 235.455 644.943 236.749C641.611 239.486 638.007 241.68 633.855 243.196C628.423 245.181 621.972 243.061 619.697 235.886C619.424 235.036 619.374 234.123 619.125 232.693C617.945 233.495 617.087 234 616.329 234.604C613.321 236.996 610.387 239.498 607.317 241.816C606.248 242.617 604.918 243.184 603.613 243.579C600.257 244.589 597.485 243.184 596.279 239.843C595.769 238.426 595.558 236.897 595.334 235.393C595.135 234.062 595.123 232.718 594.999 230.894C592.761 232.361 591.742 234.234 590.474 235.862C587.976 239.091 584.993 241.656 581.102 243.159C577.373 244.602 573.532 243.69 571.183 240.558C569.405 238.191 568.399 235.566 568.237 232.521C567.703 222.437 572.103 214.843 579.871 208.79C582.208 206.978 584.62 205.437 587.429 204.439C592.115 202.762 596.229 203.095 599.498 207.25C599.784 207.607 600.17 207.878 600.866 208.532C604.234 206.855 607.74 205.117 611.966 203.034C611.717 204.92 611.717 206.091 611.406 207.163C609.641 213.315 607.74 219.441 606.024 225.605C605.539 227.343 605.527 229.217 605.328 231.029C605.079 233.297 606.012 234.888 608.349 235.849C612.948 235.122 615.073 230.955 618.516 228.231C620.605 211.589 625.639 195.822 633.793 180.807C638.218 179.846 642.183 176.776 647.242 176.751C648.572 179.981 649.629 182.878 648.721 186.231C648.162 188.278 648.187 190.472 647.764 192.555C646.21 200.075 642.282 206.461 637.708 212.489C635.57 215.299 633.196 217.937 630.76 220.847C630.288 224.644 629.281 228.724 630.909 232.706C631.518 234.197 632.699 235.467 633.42 236.54C637.547 237.489 640.617 236.601 643.339 234.099C645.825 231.806 648.473 229.698 650.735 227.787C652.239 220.23 654.041 213.302 657.124 206.251C660.753 205.425 664.569 204.562 668.845 203.588C667.602 207.36 666.446 210.627 665.427 213.943C664.085 218.32 662.804 222.708 661.599 227.109C660.84 229.92 661.213 231.67 663.003 234.949C663.985 234.777 665.34 234.9 666.223 234.308C670.039 231.781 673.382 229.205 674.837 224.175C677.335 215.509 682.667 208.556 691.368 204.821C696.278 202.713 699.237 203.107 704.892 206.35H704.855ZM579.349 232.237C583.165 236.749 585.266 236.922 589.107 233.273C589.989 232.435 590.847 231.51 591.518 230.487C595.695 224.187 598.243 217.432 597.099 209.69C594.079 206.004 590.089 205.721 587.18 209.308C581.798 215.953 578.666 223.423 579.337 232.237H579.349ZM698.491 206.152C695.483 206.621 693.606 208.273 692.139 210.257C687.876 216.064 685.129 222.4 685.34 229.796C685.427 232.94 686.471 235.122 689.753 235.8C693.506 235.356 695.707 233.026 697.658 230.055C700.927 225.063 702.518 219.503 703.227 213.746C703.637 210.418 702.245 207.447 698.478 206.14L698.491 206.152ZM643.849 180.117C642.258 182.373 641.077 183.605 640.418 185.06C636.192 194.355 633.867 204.205 632.015 214.276C633.519 213.105 634.949 211.897 635.968 210.418C639.796 204.858 643.103 199.052 644.918 192.444C645.713 189.547 645.813 186.712 645.663 183.815C645.614 182.903 644.818 182.027 643.849 180.117ZM734.637 223.583C739.038 223.731 744.084 220.847 746.135 216.643C747.651 213.549 748.223 210.282 745.812 207.114H741.225C735.818 211.49 734.637 217.296 734.65 223.583H734.637Z" fill="#0357FF"/>
<path d="M61.5782 183.494C58.6571 186.428 57.4638 189.19 56.6062 192C54.2942 199.582 52.2681 207.237 49.981 214.819C47.9052 221.685 45.9537 228.625 41.7399 234.629C38.7318 238.906 34.9034 242.149 29.7325 243.468C25.9414 244.429 22.6972 243.049 20.1614 240.324C17.9613 237.957 18.0235 235.344 20.323 232.891C21.8768 231.226 23.8283 229.944 25.6182 228.465C27.6567 229.464 27.433 231.251 27.8059 232.829C28.4025 235.381 29.0862 237.994 32.6287 238.364C35.9724 237.489 38.0855 234.863 40.037 232.065C43.7784 226.702 45.7051 220.563 47.4701 214.375C49.6827 206.608 51.659 198.781 54.0083 191.051C55.6366 185.701 59.0797 181.325 62.3364 177.023C65.1456 176.653 67.6937 176.32 70.4035 175.962C70.4035 178.847 70.5029 181.423 70.3786 184C70.2543 186.589 69.7571 189.153 69.7198 191.742C69.6204 198.361 69.6577 204.981 69.6949 211.589C69.7322 217.42 69.235 223.189 67.8305 228.872C67.6937 229.427 67.8802 230.043 67.9547 231.276C70.8882 227.775 72.0939 224.052 73.5482 220.514C77.2151 211.589 80.7204 202.602 85.2449 194.059C87.9297 188.993 91.3356 184.493 95.338 180.376C97.7494 177.898 100.372 176.406 103.915 176.665C105.419 176.776 106.935 176.69 108.837 176.69C107.395 180.511 106.003 183.864 104.847 187.279C101.938 195.97 99.9496 204.87 98.3212 213.882C97.4138 218.948 97.563 223.953 97.5133 229.007C97.4884 231.424 98.2466 233.47 100.422 234.912C103.107 236.7 105.729 235.701 107.793 234.271C111.447 231.72 114.232 228.564 115.599 223.892C118.545 213.82 125.593 207.2 135.537 203.798C140.011 202.269 143.318 203.724 146.338 207.743C146.612 208.1 147.022 208.359 147.345 208.643C151.087 206.929 154.318 204.192 158.868 203.44C157.028 209.468 155.263 215.09 153.622 220.748C152.852 223.386 152.118 226.049 151.745 228.761C151.36 231.485 151 234.432 154.766 235.8C158.967 235.134 160.993 231.251 164.25 228.86L165.443 229.796C166.487 221.71 169.06 214.054 171.981 206.115C175.549 205.376 179.265 204.611 183.467 203.749C180.794 212.859 178.209 221.697 175.822 229.858C176.046 230.955 176.046 231.276 176.17 231.547C178.084 235.566 179.091 235.862 182.771 233.445C183.541 232.94 184.411 232.496 185.008 231.818C188.575 227.787 192.267 223.842 195.536 219.589C198.805 215.336 201.751 210.824 203.479 205.474C206.785 204.821 210.079 204.168 213.895 203.416C213.597 204.537 213.323 205.302 213.212 206.091C212.777 209.197 212.913 212.168 214.902 214.88C220.931 223.053 218.83 229.18 212.69 236.318C209.681 239.819 205.691 242.309 201.067 243.529C196.158 244.824 192.105 243.357 189.309 239.067C190.452 236.108 192.777 234.025 195.176 232.163C197.513 232.632 196.99 234.69 197.848 235.849C198.731 237.057 199.563 238.302 200.272 239.301C208.252 239.621 212.615 233.495 209.408 226.912C207.394 222.782 204.983 218.85 202.522 214.449C201.353 216.039 200.247 217.407 199.29 218.874C194.119 226.789 187.544 233.482 180.508 239.732C178.818 241.224 176.63 242.247 174.542 243.196C171.484 244.602 168.227 243.344 166.873 240.287C166.264 238.919 166.114 237.341 165.692 235.886C165.418 234.925 165.033 234 164.648 232.94C161.403 235.677 158.557 238.278 155.487 240.595C153.933 241.766 152.068 242.666 150.216 243.295C146.45 244.577 143.952 243.295 142.584 239.584C142.112 238.302 141.789 236.946 141.627 235.59C141.466 234.247 141.59 232.866 141.59 231.116C139.502 232.028 138.669 233.47 137.65 234.74C134.754 238.352 131.721 241.803 127.01 243.246C122.709 244.552 118.943 243.209 116.805 239.338C115.773 237.476 114.99 235.467 113.921 233.137C112.79 234.16 111.646 235.27 110.44 236.293C106.774 239.363 103.045 242.223 98.0975 243.147C92.9017 244.109 88.9987 242.395 87.0099 237.489C85.0211 232.595 84.2007 227.38 84.9092 222.178C86.1274 213.265 87.706 204.402 91.1491 196.007C92.6034 192.469 94.356 189.054 95.9595 185.578C96.2454 184.949 96.4816 184.296 96.4567 183.494C92.9763 186.564 90.3536 190.213 88.1908 194.219C83.4549 203.009 79.9373 212.328 76.0591 221.488C73.5607 227.417 70.7764 233.199 66.9479 238.487C64.002 242.555 60.2606 244.035 54.9281 243.69C55.388 240.299 55.8106 237.057 56.2705 233.815C56.3949 232.915 56.6807 232.028 56.7305 231.128C57.0785 223.164 57.5136 215.201 57.6627 207.225C57.7994 200.137 58.943 193.258 61.0064 186.502C61.2053 185.837 61.2674 185.122 61.5906 183.433L61.5782 183.494ZM139.924 206.473C136.618 206.695 134.691 208.211 133.113 210.171C128.762 215.558 126.363 221.759 125.568 228.588C125.307 230.832 125.978 232.829 127.519 234.518C128.539 235.627 129.918 236.33 131.261 235.714C133.187 234.838 135.412 233.914 136.63 232.348C140.832 226.936 143.33 220.699 144.25 213.906C144.71 210.529 143.082 208.001 139.924 206.473Z" fill="#0357FF"/>
<path d="M316.99 229.02C316.492 230.992 316.567 232.435 315.883 233.174C311.906 237.501 307.506 241.125 301.775 243.307C296.48 245.317 290.501 242.001 291.906 234.493C292.851 229.439 294.877 224.582 296.406 219.639C296.99 217.753 297.649 215.879 298.084 213.956C298.233 213.327 297.773 212.563 297.636 211.983C295.324 211.207 293.994 212.809 292.95 213.832C289.519 217.148 286.039 220.526 283.354 224.409C281.825 226.641 281.577 229.87 281.204 232.706C280.818 235.553 280.98 238.487 280.905 241.569C277.562 242.297 274.479 242.975 271.372 243.653C271.011 240.164 270.676 236.848 270.278 232.915C265.405 236.17 260.806 237.624 255.834 233.556C254.628 234.875 253.385 236.01 252.441 237.329C250.377 240.201 247.543 241.853 244.287 243.085C237.45 245.674 229.644 242.038 228.351 233.236C226.437 220.169 233.348 210.159 244.15 205.339C249.893 202.775 256.045 202.886 261.042 205.437C262.323 212.242 261.974 215.25 257.127 230.401C260.607 233.729 262.671 233.988 266.424 231.621C267.754 230.783 269.147 230.055 270.874 229.069C271.483 221.192 274.479 213.376 277.897 205.696C281.415 205.018 284.821 204.353 288.388 203.662C286.872 208.532 285.455 213.117 283.702 218.788C285.132 217.74 285.716 217.432 286.138 216.976C290.141 212.686 294.106 208.371 299.302 205.413C301.763 204.007 303.366 203.613 307.481 203.798C308.065 204.402 309.01 205.4 309.731 206.165C310.862 212.513 308.475 217.728 306.623 223.053C305.716 225.654 304.535 228.169 303.801 230.807C303.279 232.669 302.67 234.9 304.721 236.305C306.648 237.624 308.251 236.33 309.706 235.147C311.844 233.396 313.932 231.584 316.99 229.007V229.02ZM253.211 231.707C250.725 227.504 248.476 223.497 248.774 218.665C249.072 213.808 251.857 210.085 255.063 206.374C248.587 205.746 245.952 207.126 243.193 211.996C240.893 216.064 239.762 220.502 239.364 225.05C239.128 227.725 239.563 230.548 240.185 233.187C241.291 237.846 245.753 239.264 249.445 236.194C250.837 235.048 251.807 233.396 253.186 231.707H253.211Z" fill="#0357FF"/>
<path d="M173.137 193.788C174.48 190.805 175.648 188.191 176.966 185.233C179.974 186.7 183.106 187.982 186.624 185.898C187.581 189.412 186.574 192.148 184.076 194.133C180.608 196.882 176.978 196.13 173.137 193.788Z" fill="#2969A5"/>
<path d="M658.069 193.763C659.399 190.94 660.704 188.204 662.121 185.208C665.166 186.527 668.398 188.179 672.201 185.652C672.127 189.387 671.58 192.543 668.771 194.466C665.191 196.919 661.524 195.847 658.069 193.763Z" fill="#2969A5"/>
</svg>
