<svg width="394" height="249" viewBox="0 0 394 249" fill="none" xmlns="http://www.w3.org/2000/svg">
<path d="M124.501 31.125C128.628 31.125 132.587 32.7646 135.505 35.6831C138.424 38.6017 140.064 42.5601 140.064 46.6875C140.064 50.8149 138.424 54.7733 135.505 57.6918C132.587 60.6104 128.628 62.25 124.501 62.25C120.374 62.25 116.415 60.6104 113.497 57.6918C110.578 54.7733 108.939 50.8149 108.939 46.6875C108.939 42.5601 110.578 38.6017 113.497 35.6831C116.415 32.7646 120.374 31.125 124.501 31.125ZM124.501 15.5625C116.246 15.5625 108.329 18.8417 102.492 24.6788C96.6553 30.5159 93.376 38.4326 93.376 46.6875C93.376 54.9424 96.6553 62.8591 102.492 68.6962C108.329 74.5333 116.246 77.8125 124.501 77.8125C132.756 77.8125 140.673 74.5333 146.51 68.6962C152.347 62.8591 155.626 54.9424 155.626 46.6875C155.626 38.4326 152.347 30.5159 146.51 24.6788C140.673 18.8417 132.756 15.5625 124.501 15.5625ZM143.643 85.4381H105.359C98.0536 85.4381 91.0473 88.3402 85.8815 93.5061C80.7157 98.6719 77.8135 105.678 77.8135 112.984V154.069C77.6435 158.393 79.1796 162.611 82.0908 165.814C85.002 169.016 89.055 170.946 93.376 171.188V207.448C93.376 212.401 95.3436 217.151 98.8458 220.653C102.348 224.156 107.098 226.123 112.051 226.123H136.951C139.457 226.125 141.937 225.622 144.244 224.644C146.552 223.667 148.639 222.236 150.381 220.435C152.124 218.635 153.486 216.502 154.387 214.164C155.288 211.825 155.71 209.33 155.626 206.826V171.188C159.947 170.946 164 169.016 166.911 165.814C169.822 162.611 171.359 158.393 171.189 154.069V112.984C171.189 105.678 168.286 98.6719 163.121 93.5061C157.955 88.3402 150.948 85.4381 143.643 85.4381ZM93.376 155.625V112.984C93.3551 111.404 93.6508 109.837 94.2456 108.373C94.8404 106.91 95.7223 105.581 96.8392 104.464C97.9561 103.347 99.2855 102.465 100.749 101.87C102.212 101.275 103.78 100.98 105.359 101.001H143.643C145.222 100.98 146.79 101.275 148.253 101.87C149.717 102.465 151.046 103.347 152.163 104.464C153.28 105.581 154.162 106.91 154.757 108.373C155.351 109.837 155.647 111.404 155.626 112.984V155.625H140.064V207.137C140.064 207.962 139.736 208.754 139.152 209.338C138.568 209.921 137.777 210.249 136.951 210.249H112.051C111.226 210.249 110.434 209.921 109.85 209.338C109.266 208.754 108.939 207.962 108.939 207.137V155.625H93.376Z" fill="black"/>
<path d="M269.501 31.125C273.628 31.125 277.587 32.7646 280.505 35.6831C283.424 38.6017 285.064 42.5601 285.064 46.6875C285.064 50.8149 283.424 54.7733 280.505 57.6918C277.587 60.6104 273.628 62.25 269.501 62.25C265.374 62.25 261.415 60.6104 258.497 57.6918C255.578 54.7733 253.939 50.8149 253.939 46.6875C253.939 42.5601 255.578 38.6017 258.497 35.6831C261.415 32.7646 265.374 31.125 269.501 31.125ZM269.501 15.5625C261.246 15.5625 253.329 18.8417 247.492 24.6788C241.655 30.5159 238.376 38.4326 238.376 46.6875C238.376 54.9424 241.655 62.8591 247.492 68.6962C253.329 74.5333 261.246 77.8125 269.501 77.8125C277.756 77.8125 285.673 74.5333 291.51 68.6962C297.347 62.8591 300.626 54.9424 300.626 46.6875C300.626 38.4326 297.347 30.5159 291.51 24.6788C285.673 18.8417 277.756 15.5625 269.501 15.5625ZM288.643 85.4381H250.359C243.054 85.4381 236.047 88.3402 230.881 93.5061C225.716 98.6719 222.814 105.678 222.814 112.984V154.069C222.643 158.393 224.18 162.611 227.091 165.814C230.002 169.016 234.055 170.946 238.376 171.188V207.448C238.376 212.401 240.344 217.151 243.846 220.653C247.348 224.156 252.098 226.123 257.051 226.123H281.951C284.457 226.125 286.937 225.622 289.244 224.644C291.552 223.667 293.639 222.236 295.381 220.435C297.124 218.635 298.486 216.502 299.387 214.164C300.288 211.825 300.71 209.33 300.626 206.826V171.188C304.947 170.946 309 169.016 311.911 165.814C314.822 162.611 316.359 158.393 316.189 154.069V112.984C316.189 105.678 313.286 98.6719 308.121 93.5061C302.955 88.3402 295.948 85.4381 288.643 85.4381ZM238.376 155.625V112.984C238.355 111.404 238.651 109.837 239.246 108.373C239.84 106.91 240.722 105.581 241.839 104.464C242.956 103.347 244.285 102.465 245.749 101.87C247.212 101.275 248.78 100.98 250.359 101.001H288.643C290.222 100.98 291.79 101.275 293.253 101.87C294.717 102.465 296.046 103.347 297.163 104.464C298.28 105.581 299.162 106.91 299.757 108.373C300.351 109.837 300.647 111.404 300.626 112.984V155.625H285.064V207.137C285.064 207.962 284.736 208.754 284.152 209.338C283.568 209.921 282.777 210.249 281.951 210.249H257.051C256.226 210.249 255.434 209.921 254.85 209.338C254.266 208.754 253.939 207.962 253.939 207.137V155.625H238.376Z" fill="black"/>
</svg>
