<svg width="220" height="220" viewBox="0 0 220 220" fill="none" xmlns="http://www.w3.org/2000/svg">
<path d="M201.668 174.167V192.5H183.335V174.167H36.668V192.5H18.3346V174.167C15.9035 174.167 13.5719 173.201 11.8528 171.482C10.1337 169.763 9.16797 167.431 9.16797 165V55C9.16797 52.5689 10.1337 50.2373 11.8528 48.5182C13.5719 46.7991 15.9035 45.8334 18.3346 45.8334H108.26C113.814 40.0296 120.487 35.4126 127.877 32.2614C135.266 29.1103 143.218 27.4905 151.251 27.5C168.145 27.5 183.408 34.5309 194.243 45.8334H201.668C204.099 45.8334 206.431 46.7991 208.15 48.5182C209.869 50.2373 210.835 52.5689 210.835 55V165C210.835 167.431 209.869 169.763 208.15 171.482C206.431 173.201 204.099 174.167 201.668 174.167ZM151.251 128.333C156.668 128.333 162.032 127.266 167.037 125.193C172.042 123.12 176.589 120.082 180.419 116.252C184.25 112.421 187.288 107.874 189.361 102.869C191.434 97.8644 192.501 92.5004 192.501 87.0834C192.501 81.6663 191.434 76.3024 189.361 71.2977C187.288 66.293 184.25 61.7456 180.419 57.9152C176.589 54.0848 172.042 51.0464 167.037 48.9733C162.032 46.9003 156.668 45.8334 151.251 45.8334C140.311 45.8334 129.819 50.1793 122.083 57.9152C114.347 65.6511 110.001 76.1432 110.001 87.0834C110.001 98.0236 114.347 108.516 122.083 116.252C129.819 123.987 140.311 128.333 151.251 128.333ZM151.251 110C145.173 110 139.344 107.586 135.047 103.288C130.749 98.9902 128.335 93.1612 128.335 87.0834C128.335 81.0055 130.749 75.1766 135.047 70.8788C139.344 66.5811 145.173 64.1667 151.251 64.1667C157.329 64.1667 163.158 66.5811 167.456 70.8788C171.754 75.1766 174.168 81.0055 174.168 87.0834C174.168 93.1612 171.754 98.9902 167.456 103.288C163.158 107.586 157.329 110 151.251 110ZM36.668 119.167V137.5H55.0013V119.167H36.668ZM73.3346 119.167V137.5H91.668V119.167H73.3346Z" fill="black"/>
</svg>
