<?xml version="1.0" standalone="no"?>
<!DOCTYPE svg PUBLIC "-//W3C//DTD SVG 20010904//EN"
 "http://www.w3.org/TR/2001/REC-SVG-20010904/DTD/svg10.dtd">
<svg version="1.0" xmlns="http://www.w3.org/2000/svg"
 width="205.000000pt" height="196.000000pt" viewBox="0 0 205.000000 196.000000"
 preserveAspectRatio="xMidYMid meet">

<g transform="translate(0.000000,196.000000) scale(0.100000,-0.100000)"
fill="#000000" stroke="none">
<path d="M728 1886 c-81 -29 -126 -77 -157 -169 -31 -89 -31 -89 -125 -108
-89 -18 -141 -41 -160 -72 -28 -44 50 -102 184 -136 81 -20 91 -27 59 -40 -37
-14 -60 -45 -66 -89 -6 -45 16 -97 45 -106 13 -4 24 -26 36 -67 24 -86 60
-154 110 -204 47 -47 59 -86 44 -142 -5 -18 -19 -39 -31 -47 -12 -7 -87 -24
-167 -37 -113 -18 -149 -27 -165 -43 -11 -12 -37 -77 -59 -147 -35 -115 -37
-129 -25 -155 11 -22 61 -52 239 -146 l225 -118 151 0 152 0 152 81 c85 44
158 81 163 82 5 1 16 -25 23 -58 22 -96 19 -95 278 -95 219 0 223 0 244 23 17
18 31 70 64 228 40 198 43 205 72 224 26 17 32 28 34 64 5 63 -5 90 -36 103
-15 7 -43 29 -62 51 -28 30 -44 40 -80 44 -25 3 -55 14 -68 24 -39 30 -78 33
-126 10 -53 -26 -73 -20 -83 27 -10 51 -10 161 0 197 l9 30 14 -27 c29 -54 89
-41 121 27 l16 34 39 -34 c70 -64 114 -42 106 53 l-6 57 45 1 c91 3 109 70 33
120 l-40 26 30 36 c31 38 39 79 18 100 -15 15 -82 16 -109 2 -17 -10 -19 -7
-19 24 0 78 -41 121 -86 91 -14 -9 -35 -32 -46 -51 -20 -34 -21 -34 -35 -14
-21 29 -71 53 -99 46 -36 -9 -44 -64 -19 -128 6 -16 1 -18 -40 -18 -61 0 -85
-14 -85 -49 0 -28 26 -58 69 -81 l23 -12 -30 -31 c-61 -63 -48 -117 28 -117
l39 0 -15 -42 c-16 -45 -23 -205 -10 -244 9 -30 -36 -51 -67 -29 -59 41 -159
0 -173 -71 -5 -27 -14 -38 -39 -48 -18 -8 -37 -21 -41 -29 -8 -13 -18 -14 -64
-6 -112 20 -130 36 -130 116 0 42 5 53 31 79 53 49 107 141 126 214 9 39 21
70 26 70 4 0 19 11 32 25 47 46 29 141 -32 170 -35 17 -36 35 -3 35 38 0 171
49 205 75 82 62 8 128 -167 151 -55 7 -51 2 -93 119 -24 68 -96 138 -158 153
-62 16 -223 14 -269 -2z m275 -50 c51 -21 92 -76 126 -170 17 -48 31 -91 31
-96 0 -32 -246 -56 -412 -41 -110 11 -178 26 -178 39 0 24 75 201 93 220 42
46 93 62 205 62 64 0 115 -5 135 -14z m-478 -288 c7 -15 29 -30 65 -43 49 -17
81 -20 280 -20 202 0 230 2 275 20 30 12 54 30 60 43 5 12 19 22 30 22 28 0
116 -24 144 -40 20 -10 21 -14 9 -26 -23 -23 -143 -61 -253 -80 -134 -23 -404
-23 -535 0 -105 18 -175 39 -234 68 -46 24 -40 32 40 58 80 26 107 25 119 -2z
m1271 -59 c-8 -71 2 -80 64 -55 22 9 49 16 61 16 28 0 11 -29 -35 -61 -55 -37
-47 -65 26 -88 20 -7 42 -18 48 -26 15 -18 -14 -26 -85 -22 -48 2 -50 1 -49
-23 1 -14 9 -43 17 -65 23 -60 9 -64 -39 -12 -23 26 -49 47 -58 47 -10 0 -26
-21 -41 -55 -32 -74 -48 -72 -43 6 4 77 -11 92 -67 66 -20 -9 -48 -17 -63 -17
-26 0 -25 2 25 50 58 54 60 72 10 89 -95 34 -92 64 5 54 57 -6 58 -5 58 19 0
14 -7 39 -15 54 -8 16 -15 39 -15 52 0 20 3 21 20 12 11 -6 30 -26 43 -45 29
-46 61 -47 76 -3 17 47 40 80 53 72 6 -4 8 -27 4 -65z m-936 -132 c58 0 144 3
191 7 l86 8 6 -31 c6 -26 11 -31 36 -31 32 0 41 -14 41 -62 0 -24 -6 -32 -30
-41 -17 -7 -33 -21 -35 -32 -19 -96 -32 -133 -66 -185 -103 -160 -274 -185
-402 -57 -47 47 -95 144 -103 210 -6 40 -11 50 -33 58 -31 12 -41 26 -41 60 0
31 17 49 47 49 13 0 26 7 28 15 3 8 7 22 10 31 4 13 16 15 82 8 43 -3 125 -7
183 -7z m10 -552 c25 0 60 4 78 8 32 9 32 8 32 -28 0 -47 23 -101 50 -115 33
-18 13 -29 -77 -42 -62 -9 -102 -9 -168 0 -101 13 -114 19 -86 39 31 21 51 66
51 113 l0 41 38 -8 c20 -4 57 -8 82 -8z m590 -22 c31 -25 33 -26 60 -10 37 22
62 21 93 -3 32 -26 34 -26 67 10 35 38 64 38 99 1 24 -26 33 -29 67 -24 29 4
43 1 53 -11 12 -15 -11 -16 -268 -16 -266 0 -281 1 -281 18 0 25 38 57 72 61
3 1 21 -11 38 -26z m526 -111 c35 -23 22 -88 -18 -94 -21 -3 -26 -18 -68 -221
-35 -171 -49 -222 -64 -233 -15 -11 -60 -14 -197 -14 -98 0 -188 4 -201 9 -22
8 -28 26 -67 218 -52 255 -49 243 -70 243 -25 0 -41 20 -41 50 0 50 0 50 370
50 190 0 350 -4 356 -8z m-1324 -66 c130 -44 297 -43 411 1 23 8 63 18 88 20
45 5 46 4 53 -27 3 -18 6 -59 6 -91 l0 -59 -355 0 -355 0 0 84 c0 58 4 86 13
89 27 11 70 6 139 -17z m-202 -177 l0 -180 -80 43 c-44 24 -82 49 -85 56 -3 7
12 66 33 130 40 123 44 128 110 131 l22 1 0 -181z m850 -38 c21 -100 21 -106
4 -118 -40 -29 -44 -19 -44 100 0 96 5 137 15 125 2 -2 12 -50 25 -107z m-92
-77 l-3 -95 -114 -60 -114 -59 -120 0 -119 0 -119 61 -119 62 0 93 0 94 355 0
356 0 -3 -96z"/>
<path d="M1710 1393 c-56 -20 -68 -87 -23 -123 45 -35 113 -2 113 55 0 42 -52
82 -90 68z m37 -59 c9 -23 -13 -40 -32 -24 -12 10 -13 16 -4 26 15 18 28 18
36 -2z"/>
</g>
</svg>
