<?xml version="1.0" standalone="no"?>
<!DOCTYPE svg PUBLIC "-//W3C//DTD SVG 20010904//EN"
 "http://www.w3.org/TR/2001/REC-SVG-20010904/DTD/svg10.dtd">
<svg version="1.0" xmlns="http://www.w3.org/2000/svg"
 width="293.000000pt" height="156.000000pt" viewBox="0 0 293.000000 156.000000"
 preserveAspectRatio="xMidYMid meet">

<g transform="translate(0.000000,156.000000) scale(0.100000,-0.100000)"
fill="#000000" stroke="none">
<path d="M374 1376 c-104 -46 -106 -204 -3 -256 74 -38 154 -13 191 61 62 121
-62 250 -188 195z m99 -30 c42 -18 64 -43 72 -86 13 -71 -67 -139 -140 -119
-100 28 -101 179 -2 208 18 5 33 10 35 10 1 1 17 -5 35 -13z"/>
<path d="M2340 1372 c-72 -36 -99 -119 -62 -191 54 -108 205 -104 254 6 56
126 -69 247 -192 185z m97 -22 c8 0 28 -13 44 -29 57 -57 31 -158 -46 -180
-73 -20 -153 48 -140 119 4 19 14 43 23 54 21 23 73 47 90 41 8 -3 20 -5 29
-5z"/>
<path d="M275 1070 c-53 -26 -69 -55 -93 -170 -31 -145 -38 -257 -18 -304 9
-21 16 -40 16 -41 0 -1 -19 -5 -42 -8 -51 -7 -78 -35 -78 -82 0 -18 9 -43 19
-56 l19 -24 246 4 246 3 0 -87 c0 -113 16 -145 73 -145 65 0 87 41 87 163 0
67 0 67 28 67 38 0 72 37 72 79 0 37 -38 81 -70 81 -17 0 -20 6 -20 44 0 27
-6 51 -16 60 -14 15 -7 16 75 16 l91 0 0 -289 c0 -264 2 -291 18 -311 27 -33
97 -33 123 -1 18 22 19 43 19 312 l0 289 125 0 c134 0 166 8 184 47 14 30 14
46 0 77 -16 34 -56 46 -155 46 l-84 0 14 33 c27 63 40 117 29 128 -6 6 -76 8
-179 7 -197 -3 -194 -1 -151 -107 l25 -61 -80 0 -80 0 31 29 c35 33 39 60 13
84 -27 24 -59 21 -130 -13 -35 -17 -69 -30 -76 -30 -7 0 -43 36 -79 80 -52 61
-76 81 -104 89 -50 14 -52 14 -98 -9z m104 -29 c9 -6 44 -42 77 -81 32 -40 69
-76 81 -81 18 -6 41 0 99 26 88 40 104 43 104 15 0 -14 -26 -36 -87 -76 -48
-31 -93 -58 -99 -61 -7 -2 -31 8 -53 22 -60 40 -71 31 -71 -63 0 -47 5 -83 12
-90 8 -8 55 -12 144 -12 97 0 133 -3 136 -12 9 -25 -12 -399 -22 -419 -8 -14
-19 -19 -38 -17 l-27 3 -5 148 c-7 195 2 187 -201 187 -130 0 -152 2 -182 20
-19 11 -39 32 -45 46 -18 39 -14 165 9 277 27 137 53 176 117 177 18 0 41 -4
51 -9z m761 -102 c-4 -23 -17 -53 -27 -68 -18 -24 -27 -26 -98 -29 -69 -3 -80
0 -101 19 -22 20 -44 74 -44 107 0 9 34 12 139 12 l138 0 -7 -41z m205 -184
l0 -40 -344 -3 c-361 -2 -371 -1 -371 42 0 46 4 46 370 44 l345 -3 0 -40z
m-789 -3 c21 3 34 0 34 -8 0 -6 9 -23 21 -38 l20 -26 -80 0 -81 0 0 51 0 51
26 -17 c16 -10 39 -15 60 -13z m482 -366 c2 -197 -1 -283 -9 -292 -17 -21 -66
-17 -79 5 -6 12 -10 125 -10 296 l0 276 48 -3 47 -3 3 -279z m-795 122 c13 -7
86 -14 182 -18 l160 -5 3 -32 3 -33 -238 0 c-252 0 -263 2 -263 46 0 30 18 42
70 47 25 2 49 4 53 5 5 1 18 -3 30 -10z m557 -8 c11 -11 20 -26 20 -34 0 -21
-28 -46 -51 -46 -15 0 -19 7 -19 34 0 66 16 80 50 46z"/>
<path d="M2463 1079 c-23 -7 -53 -34 -99 -89 -37 -44 -73 -80 -80 -80 -7 0
-41 13 -76 30 -72 34 -108 38 -131 12 -25 -27 -21 -50 14 -83 l31 -29 -80 0
-80 0 25 61 c43 106 46 104 -151 107 -103 1 -173 -1 -179 -7 -11 -11 2 -65 29
-128 l14 -33 -84 0 c-99 0 -139 -12 -155 -46 -14 -31 -14 -47 0 -77 18 -39 50
-47 184 -47 l125 0 0 -289 c0 -269 1 -290 19 -312 26 -32 96 -32 123 1 16 20
18 47 18 311 l0 289 91 0 c82 0 89 -1 75 -16 -10 -9 -16 -33 -16 -60 0 -38 -3
-44 -20 -44 -33 0 -70 -44 -70 -83 0 -41 34 -77 73 -77 27 0 27 -1 27 -67 0
-122 22 -163 87 -163 57 0 73 32 73 145 l0 87 246 -3 246 -4 19 24 c10 13 19
38 19 56 0 47 -27 75 -78 82 -23 3 -42 7 -42 8 0 1 7 20 16 41 20 47 13 159
-18 304 -24 115 -40 145 -93 170 -45 22 -54 23 -102 9z m98 -42 c32 -24 48
-64 68 -164 23 -112 27 -238 9 -277 -6 -14 -26 -35 -45 -46 -30 -18 -52 -20
-182 -20 -203 0 -194 8 -201 -187 l-5 -148 -27 -3 c-19 -2 -30 3 -38 17 -10
20 -31 394 -22 419 3 9 39 12 136 12 89 0 136 4 144 12 7 7 12 43 12 90 0 94
-11 103 -71 63 -22 -14 -46 -24 -53 -22 -6 3 -51 30 -99 61 -61 40 -87 62 -87
76 0 28 16 25 104 -15 58 -26 81 -32 99 -26 12 5 49 41 81 80 33 40 66 76 75
81 23 13 83 12 102 -3z m-591 -69 c0 -33 -22 -87 -44 -107 -21 -19 -32 -22
-101 -19 -71 3 -80 5 -98 29 -10 15 -23 45 -27 68 l-7 41 138 0 c105 0 139 -3
139 -12z m228 -180 c16 -16 15 -53 -2 -67 -9 -8 -112 -11 -357 -9 l-344 3 -3
28 c-7 60 -23 57 351 57 253 0 346 -3 355 -12z m172 -58 l0 -50 -81 0 -80 0
20 26 c12 15 21 32 21 38 0 8 13 11 34 8 21 -2 44 2 58 12 12 9 24 16 25 16 2
0 3 -22 3 -50z m-470 -336 c0 -171 -4 -283 -10 -295 -12 -22 -59 -26 -78 -7
-9 9 -12 87 -12 288 0 152 3 280 7 283 3 4 26 7 50 7 l43 0 0 -276z m184 110
c3 -9 6 -31 6 -50 0 -27 -4 -34 -19 -34 -23 0 -51 25 -51 46 0 15 35 54 49 54
5 0 12 -7 15 -16z m654 -7 c15 -12 16 -49 0 -65 -9 -9 -78 -12 -251 -12 l-238
0 3 33 3 32 160 5 c90 3 169 11 180 17 22 13 123 6 143 -10z"/>
</g>
</svg>
