<svg width="163" height="163" viewBox="0 0 163 163" fill="none" xmlns="http://www.w3.org/2000/svg">
<path d="M27.1654 142.626C23.4299 142.626 20.2333 141.297 17.5755 138.639C14.9177 135.981 13.5866 132.782 13.582 129.042V54.334C13.582 50.5986 14.9132 47.402 17.5755 44.7442C20.2379 42.0863 23.4345 40.7552 27.1654 40.7507H54.332V27.1673C54.332 23.4319 55.6632 20.2353 58.3255 17.5775C60.9879 14.9197 64.1845 13.5885 67.9154 13.584H95.082C98.8174 13.584 102.016 14.9152 104.679 17.5775C107.341 20.2398 108.67 23.4364 108.665 27.1673V40.7507H135.832C139.567 40.7507 142.766 42.0818 145.429 44.7442C148.091 47.4065 149.42 50.6031 149.415 54.334V129.042C149.415 132.778 148.086 135.977 145.429 138.639C142.771 141.301 139.572 142.63 135.832 142.626H27.1654ZM67.9154 40.7507H95.082V27.1673H67.9154V40.7507Z" fill="#045B5C"/>
</svg>
