<svg width="219" height="219" viewBox="0 0 219 219" fill="none" xmlns="http://www.w3.org/2000/svg">
<path d="M109.5 18.25C114.34 18.25 118.982 20.1728 122.405 23.5953C125.827 27.0178 127.75 31.6598 127.75 36.5C127.75 43.2525 124.1 49.1838 118.625 52.2863V63.875H127.75C144.691 63.875 160.938 70.6047 172.916 82.5836C184.895 94.5624 191.625 110.809 191.625 127.75H200.75C203.17 127.75 205.491 128.711 207.202 130.423C208.914 132.134 209.875 134.455 209.875 136.875V164.25C209.875 166.67 208.914 168.991 207.202 170.702C205.491 172.414 203.17 173.375 200.75 173.375H191.625V182.5C191.625 187.34 189.702 191.982 186.28 195.405C182.857 198.827 178.215 200.75 173.375 200.75H45.625C40.7848 200.75 36.1428 198.827 32.7203 195.405C29.2978 191.982 27.375 187.34 27.375 182.5V173.375H18.25C15.8299 173.375 13.5089 172.414 11.7977 170.702C10.0864 168.991 9.125 166.67 9.125 164.25V136.875C9.125 134.455 10.0864 132.134 11.7977 130.423C13.5089 128.711 15.8299 127.75 18.25 127.75H27.375C27.375 110.809 34.1047 94.5624 46.0836 82.5836C58.0624 70.6047 74.3093 63.875 91.25 63.875H100.375V52.2863C94.9 49.1838 91.25 43.2525 91.25 36.5C91.25 31.6598 93.1728 27.0178 96.5953 23.5953C100.018 20.1728 104.66 18.25 109.5 18.25ZM68.4375 118.625C62.3872 118.625 56.5848 121.028 52.3066 125.307C48.0285 129.585 45.625 135.387 45.625 141.438C45.625 147.488 48.0285 153.29 52.3066 157.568C56.5848 161.847 62.3872 164.25 68.4375 164.25C74.4878 164.25 80.2902 161.847 84.5684 157.568C88.8465 153.29 91.25 147.488 91.25 141.438C91.25 135.387 88.8465 129.585 84.5684 125.307C80.2902 121.028 74.4878 118.625 68.4375 118.625ZM150.562 118.625C144.512 118.625 138.71 121.028 134.432 125.307C130.153 129.585 127.75 135.387 127.75 141.438C127.75 147.488 130.153 153.29 134.432 157.568C138.71 161.847 144.512 164.25 150.562 164.25C156.613 164.25 162.415 161.847 166.693 157.568C170.972 153.29 173.375 147.488 173.375 141.438C173.375 135.387 170.972 129.585 166.693 125.307C162.415 121.028 156.613 118.625 150.562 118.625Z" fill="black"/>
</svg>
